ISO-10303-21;
HEADER;
/* Generated by software containing ST-Developer
 * from STEP Tools, Inc. (www.steptools.com) 
 */

FILE_DESCRIPTION(
/* description */ (''),
/* implementation_level */ '2;1');

FILE_NAME(
/* name */ 'Item Halter (~recovered).step',
/* time_stamp */ '2026-02-09T21:53:51+01:00',
/* author */ (''),
/* organization */ (''),
/* preprocessor_version */ 'ST-DEVELOPER v20.1',
/* originating_system */ 'Autodesk Translation Framework v14.21.0.0',
/* authorisation */ '');

FILE_SCHEMA (('AUTOMOTIVE_DESIGN { 1 0 10303 214 3 1 1 }'));
ENDSEC;

DATA;
#10=MECHANICAL_DESIGN_GEOMETRIC_PRESENTATION_REPRESENTATION('',(#13),#1065);
#11=SHAPE_REPRESENTATION_RELATIONSHIP('SRR','None',#1072,#12);
#12=ADVANCED_BREP_SHAPE_REPRESENTATION('',(#14),#1064);
#13=STYLED_ITEM('',(#1081),#14);
#14=MANIFOLD_SOLID_BREP('K\X\F6rper1',#641);
#15=TOROIDAL_SURFACE('',#692,12.,2.);
#16=TOROIDAL_SURFACE('',#697,12.,2.);
#17=ELLIPSE('',#687,2.82842712474619,2.);
#18=ELLIPSE('',#689,2.82842712474619,2.);
#19=ELLIPSE('',#696,2.82842712474619,2.);
#20=ELLIPSE('',#701,2.82842712474619,2.);
#21=FACE_BOUND('',#98,.T.);
#22=FACE_BOUND('',#104,.T.);
#23=FACE_BOUND('',#107,.T.);
#24=FACE_BOUND('',#109,.T.);
#25=FACE_BOUND('',#120,.T.);
#26=FACE_BOUND('',#124,.T.);
#27=CYLINDRICAL_SURFACE('',#661,3.00000004470348);
#28=CYLINDRICAL_SURFACE('',#670,3.);
#29=CYLINDRICAL_SURFACE('',#684,3.);
#30=CYLINDRICAL_SURFACE('',#685,2.);
#31=CYLINDRICAL_SURFACE('',#688,2.);
#32=CYLINDRICAL_SURFACE('',#690,2.);
#33=CYLINDRICAL_SURFACE('',#695,2.);
#34=CYLINDRICAL_SURFACE('',#700,2.);
#35=CYLINDRICAL_SURFACE('',#702,2.);
#36=CYLINDRICAL_SURFACE('',#704,10.);
#37=CIRCLE('',#658,12.);
#38=CIRCLE('',#662,3.00000004470348);
#39=CIRCLE('',#663,3.00000004470348);
#40=CIRCLE('',#668,12.);
#41=CIRCLE('',#671,3.);
#42=CIRCLE('',#672,3.);
#43=CIRCLE('',#679,3.);
#44=CIRCLE('',#682,3.);
#45=CIRCLE('',#686,2.);
#46=CIRCLE('',#691,2.);
#47=CIRCLE('',#693,2.);
#48=CIRCLE('',#694,10.);
#49=CIRCLE('',#698,2.);
#50=CIRCLE('',#699,10.);
#51=FACE_OUTER_BOUND('',#85,.T.);
#52=FACE_OUTER_BOUND('',#86,.T.);
#53=FACE_OUTER_BOUND('',#87,.T.);
#54=FACE_OUTER_BOUND('',#88,.T.);
#55=FACE_OUTER_BOUND('',#89,.T.);
#56=FACE_OUTER_BOUND('',#90,.T.);
#57=FACE_OUTER_BOUND('',#91,.T.);
#58=FACE_OUTER_BOUND('',#92,.T.);
#59=FACE_OUTER_BOUND('',#93,.T.);
#60=FACE_OUTER_BOUND('',#94,.T.);
#61=FACE_OUTER_BOUND('',#95,.T.);
#62=FACE_OUTER_BOUND('',#96,.T.);
#63=FACE_OUTER_BOUND('',#97,.T.);
#64=FACE_OUTER_BOUND('',#99,.T.);
#65=FACE_OUTER_BOUND('',#100,.T.);
#66=FACE_OUTER_BOUND('',#101,.T.);
#67=FACE_OUTER_BOUND('',#102,.T.);
#68=FACE_OUTER_BOUND('',#103,.T.);
#69=FACE_OUTER_BOUND('',#105,.T.);
#70=FACE_OUTER_BOUND('',#106,.T.);
#71=FACE_OUTER_BOUND('',#108,.T.);
#72=FACE_OUTER_BOUND('',#110,.T.);
#73=FACE_OUTER_BOUND('',#111,.T.);
#74=FACE_OUTER_BOUND('',#112,.T.);
#75=FACE_OUTER_BOUND('',#113,.T.);
#76=FACE_OUTER_BOUND('',#114,.T.);
#77=FACE_OUTER_BOUND('',#115,.T.);
#78=FACE_OUTER_BOUND('',#116,.T.);
#79=FACE_OUTER_BOUND('',#117,.T.);
#80=FACE_OUTER_BOUND('',#118,.T.);
#81=FACE_OUTER_BOUND('',#119,.T.);
#82=FACE_OUTER_BOUND('',#121,.T.);
#83=FACE_OUTER_BOUND('',#122,.T.);
#84=FACE_OUTER_BOUND('',#123,.T.);
#85=EDGE_LOOP('',(#409,#410,#411,#412));
#86=EDGE_LOOP('',(#413,#414,#415,#416));
#87=EDGE_LOOP('',(#417,#418,#419,#420,#421,#422,#423,#424,#425,#426,#427,
#428,#429,#430,#431));
#88=EDGE_LOOP('',(#432,#433,#434,#435));
#89=EDGE_LOOP('',(#436,#437,#438,#439,#440,#441));
#90=EDGE_LOOP('',(#442,#443,#444,#445));
#91=EDGE_LOOP('',(#446,#447,#448,#449));
#92=EDGE_LOOP('',(#450,#451,#452,#453,#454,#455));
#93=EDGE_LOOP('',(#456,#457,#458,#459,#460,#461));
#94=EDGE_LOOP('',(#462,#463,#464,#465,#466,#467,#468,#469,#470,#471,#472,
#473,#474,#475,#476));
#95=EDGE_LOOP('',(#477,#478,#479,#480));
#96=EDGE_LOOP('',(#481,#482,#483,#484));
#97=EDGE_LOOP('',(#485,#486,#487,#488,#489,#490));
#98=EDGE_LOOP('',(#491));
#99=EDGE_LOOP('',(#492,#493,#494,#495));
#100=EDGE_LOOP('',(#496,#497,#498,#499));
#101=EDGE_LOOP('',(#500,#501,#502,#503));
#102=EDGE_LOOP('',(#504,#505,#506,#507));
#103=EDGE_LOOP('',(#508,#509,#510,#511,#512,#513));
#104=EDGE_LOOP('',(#514));
#105=EDGE_LOOP('',(#515,#516,#517,#518));
#106=EDGE_LOOP('',(#519,#520,#521,#522,#523,#524));
#107=EDGE_LOOP('',(#525));
#108=EDGE_LOOP('',(#526,#527,#528,#529));
#109=EDGE_LOOP('',(#530));
#110=EDGE_LOOP('',(#531,#532,#533,#534));
#111=EDGE_LOOP('',(#535,#536,#537,#538));
#112=EDGE_LOOP('',(#539,#540,#541,#542));
#113=EDGE_LOOP('',(#543,#544,#545,#546));
#114=EDGE_LOOP('',(#547,#548,#549,#550));
#115=EDGE_LOOP('',(#551,#552,#553,#554));
#116=EDGE_LOOP('',(#555,#556,#557,#558));
#117=EDGE_LOOP('',(#559,#560,#561,#562));
#118=EDGE_LOOP('',(#563,#564,#565,#566));
#119=EDGE_LOOP('',(#567,#568,#569,#570));
#120=EDGE_LOOP('',(#571));
#121=EDGE_LOOP('',(#572,#573,#574,#575));
#122=EDGE_LOOP('',(#576,#577,#578,#579));
#123=EDGE_LOOP('',(#580,#581,#582,#583));
#124=EDGE_LOOP('',(#584));
#125=LINE('',#887,#195);
#126=LINE('',#889,#196);
#127=LINE('',#891,#197);
#128=LINE('',#892,#198);
#129=LINE('',#895,#199);
#130=LINE('',#897,#200);
#131=LINE('',#898,#201);
#132=LINE('',#901,#202);
#133=LINE('',#903,#203);
#134=LINE('',#905,#204);
#135=LINE('',#907,#205);
#136=LINE('',#909,#206);
#137=LINE('',#911,#207);
#138=LINE('',#915,#208);
#139=LINE('',#917,#209);
#140=LINE('',#919,#210);
#141=LINE('',#921,#211);
#142=LINE('',#923,#212);
#143=LINE('',#925,#213);
#144=LINE('',#926,#214);
#145=LINE('',#929,#215);
#146=LINE('',#931,#216);
#147=LINE('',#932,#217);
#148=LINE('',#935,#218);
#149=LINE('',#937,#219);
#150=LINE('',#939,#220);
#151=LINE('',#940,#221);
#152=LINE('',#945,#222);
#153=LINE('',#949,#223);
#154=LINE('',#951,#224);
#155=LINE('',#952,#225);
#156=LINE('',#954,#226);
#157=LINE('',#957,#227);
#158=LINE('',#958,#228);
#159=LINE('',#961,#229);
#160=LINE('',#963,#230);
#161=LINE('',#965,#231);
#162=LINE('',#967,#232);
#163=LINE('',#969,#233);
#164=LINE('',#973,#234);
#165=LINE('',#975,#235);
#166=LINE('',#977,#236);
#167=LINE('',#978,#237);
#168=LINE('',#981,#238);
#169=LINE('',#982,#239);
#170=LINE('',#987,#240);
#171=LINE('',#991,#241);
#172=LINE('',#992,#242);
#173=LINE('',#993,#243);
#174=LINE('',#995,#244);
#175=LINE('',#999,#245);
#176=LINE('',#1001,#246);
#177=LINE('',#1002,#247);
#178=LINE('',#1005,#248);
#179=LINE('',#1007,#249);
#180=LINE('',#1008,#250);
#181=LINE('',#1010,#251);
#182=LINE('',#1011,#252);
#183=LINE('',#1015,#253);
#184=LINE('',#1017,#254);
#185=LINE('',#1022,#255);
#186=LINE('',#1027,#256);
#187=LINE('',#1031,#257);
#188=LINE('',#1035,#258);
#189=LINE('',#1043,#259);
#190=LINE('',#1051,#260);
#191=LINE('',#1054,#261);
#192=LINE('',#1055,#262);
#193=LINE('',#1057,#263);
#194=LINE('',#1059,#264);
#195=VECTOR('',#711,10.);
#196=VECTOR('',#712,10.);
#197=VECTOR('',#713,10.);
#198=VECTOR('',#714,10.);
#199=VECTOR('',#717,10.);
#200=VECTOR('',#718,10.);
#201=VECTOR('',#719,10.);
#202=VECTOR('',#722,10.);
#203=VECTOR('',#723,10.);
#204=VECTOR('',#724,10.);
#205=VECTOR('',#725,10.);
#206=VECTOR('',#726,10.);
#207=VECTOR('',#727,10.);
#208=VECTOR('',#730,10.);
#209=VECTOR('',#731,10.);
#210=VECTOR('',#732,10.);
#211=VECTOR('',#733,10.);
#212=VECTOR('',#734,10.);
#213=VECTOR('',#735,10.);
#214=VECTOR('',#736,10.);
#215=VECTOR('',#739,10.);
#216=VECTOR('',#740,10.);
#217=VECTOR('',#741,10.);
#218=VECTOR('',#744,10.);
#219=VECTOR('',#745,10.);
#220=VECTOR('',#746,10.);
#221=VECTOR('',#747,10.);
#222=VECTOR('',#752,3.00000004470348);
#223=VECTOR('',#757,10.);
#224=VECTOR('',#758,10.);
#225=VECTOR('',#759,10.);
#226=VECTOR('',#762,10.);
#227=VECTOR('',#765,10.);
#228=VECTOR('',#766,10.);
#229=VECTOR('',#769,10.);
#230=VECTOR('',#770,10.);
#231=VECTOR('',#771,10.);
#232=VECTOR('',#772,10.);
#233=VECTOR('',#773,10.);
#234=VECTOR('',#776,10.);
#235=VECTOR('',#777,10.);
#236=VECTOR('',#778,10.);
#237=VECTOR('',#779,10.);
#238=VECTOR('',#782,10.);
#239=VECTOR('',#783,10.);
#240=VECTOR('',#788,3.);
#241=VECTOR('',#793,10.);
#242=VECTOR('',#794,10.);
#243=VECTOR('',#795,10.);
#244=VECTOR('',#798,10.);
#245=VECTOR('',#803,10.);
#246=VECTOR('',#804,10.);
#247=VECTOR('',#805,10.);
#248=VECTOR('',#808,10.);
#249=VECTOR('',#809,10.);
#250=VECTOR('',#810,10.);
#251=VECTOR('',#813,10.);
#252=VECTOR('',#814,10.);
#253=VECTOR('',#819,10.);
#254=VECTOR('',#822,10.);
#255=VECTOR('',#829,3.);
#256=VECTOR('',#834,10.);
#257=VECTOR('',#839,10.);
#258=VECTOR('',#844,10.);
#259=VECTOR('',#855,10.);
#260=VECTOR('',#866,10.);
#261=VECTOR('',#871,10.);
#262=VECTOR('',#872,10.);
#263=VECTOR('',#875,10.);
#264=VECTOR('',#878,10.);
#265=VERTEX_POINT('',#885);
#266=VERTEX_POINT('',#886);
#267=VERTEX_POINT('',#888);
#268=VERTEX_POINT('',#890);
#269=VERTEX_POINT('',#894);
#270=VERTEX_POINT('',#896);
#271=VERTEX_POINT('',#900);
#272=VERTEX_POINT('',#902);
#273=VERTEX_POINT('',#904);
#274=VERTEX_POINT('',#906);
#275=VERTEX_POINT('',#908);
#276=VERTEX_POINT('',#910);
#277=VERTEX_POINT('',#912);
#278=VERTEX_POINT('',#914);
#279=VERTEX_POINT('',#916);
#280=VERTEX_POINT('',#918);
#281=VERTEX_POINT('',#920);
#282=VERTEX_POINT('',#922);
#283=VERTEX_POINT('',#924);
#284=VERTEX_POINT('',#928);
#285=VERTEX_POINT('',#930);
#286=VERTEX_POINT('',#934);
#287=VERTEX_POINT('',#936);
#288=VERTEX_POINT('',#938);
#289=VERTEX_POINT('',#942);
#290=VERTEX_POINT('',#944);
#291=VERTEX_POINT('',#948);
#292=VERTEX_POINT('',#950);
#293=VERTEX_POINT('',#956);
#294=VERTEX_POINT('',#960);
#295=VERTEX_POINT('',#962);
#296=VERTEX_POINT('',#964);
#297=VERTEX_POINT('',#966);
#298=VERTEX_POINT('',#968);
#299=VERTEX_POINT('',#970);
#300=VERTEX_POINT('',#972);
#301=VERTEX_POINT('',#974);
#302=VERTEX_POINT('',#976);
#303=VERTEX_POINT('',#980);
#304=VERTEX_POINT('',#984);
#305=VERTEX_POINT('',#986);
#306=VERTEX_POINT('',#990);
#307=VERTEX_POINT('',#998);
#308=VERTEX_POINT('',#1000);
#309=VERTEX_POINT('',#1004);
#310=VERTEX_POINT('',#1006);
#311=VERTEX_POINT('',#1012);
#312=VERTEX_POINT('',#1018);
#313=VERTEX_POINT('',#1024);
#314=VERTEX_POINT('',#1026);
#315=VERTEX_POINT('',#1030);
#316=VERTEX_POINT('',#1034);
#317=VERTEX_POINT('',#1038);
#318=VERTEX_POINT('',#1042);
#319=VERTEX_POINT('',#1046);
#320=VERTEX_POINT('',#1050);
#321=EDGE_CURVE('',#265,#266,#125,.T.);
#322=EDGE_CURVE('',#265,#267,#126,.T.);
#323=EDGE_CURVE('',#267,#268,#127,.T.);
#324=EDGE_CURVE('',#266,#268,#128,.T.);
#325=EDGE_CURVE('',#269,#267,#129,.T.);
#326=EDGE_CURVE('',#270,#269,#130,.T.);
#327=EDGE_CURVE('',#268,#270,#131,.T.);
#328=EDGE_CURVE('',#269,#271,#132,.T.);
#329=EDGE_CURVE('',#271,#272,#133,.T.);
#330=EDGE_CURVE('',#272,#273,#134,.T.);
#331=EDGE_CURVE('',#274,#273,#135,.T.);
#332=EDGE_CURVE('',#274,#275,#136,.T.);
#333=EDGE_CURVE('',#276,#275,#137,.T.);
#334=EDGE_CURVE('',#277,#276,#37,.T.);
#335=EDGE_CURVE('',#278,#277,#138,.T.);
#336=EDGE_CURVE('',#279,#278,#139,.T.);
#337=EDGE_CURVE('',#280,#279,#140,.T.);
#338=EDGE_CURVE('',#281,#280,#141,.T.);
#339=EDGE_CURVE('',#281,#282,#142,.T.);
#340=EDGE_CURVE('',#283,#282,#143,.T.);
#341=EDGE_CURVE('',#270,#283,#144,.T.);
#342=EDGE_CURVE('',#284,#282,#145,.T.);
#343=EDGE_CURVE('',#284,#285,#146,.T.);
#344=EDGE_CURVE('',#285,#283,#147,.T.);
#345=EDGE_CURVE('',#286,#281,#148,.T.);
#346=EDGE_CURVE('',#287,#286,#149,.T.);
#347=EDGE_CURVE('',#288,#287,#150,.T.);
#348=EDGE_CURVE('',#284,#288,#151,.T.);
#349=EDGE_CURVE('',#289,#289,#38,.T.);
#350=EDGE_CURVE('',#289,#290,#152,.T.);
#351=EDGE_CURVE('',#290,#290,#39,.T.);
#352=EDGE_CURVE('',#265,#291,#153,.T.);
#353=EDGE_CURVE('',#292,#266,#154,.T.);
#354=EDGE_CURVE('',#291,#292,#155,.T.);
#355=EDGE_CURVE('',#292,#285,#156,.T.);
#356=EDGE_CURVE('',#293,#291,#157,.T.);
#357=EDGE_CURVE('',#271,#293,#158,.T.);
#358=EDGE_CURVE('',#294,#293,#159,.T.);
#359=EDGE_CURVE('',#295,#288,#160,.T.);
#360=EDGE_CURVE('',#295,#296,#161,.T.);
#361=EDGE_CURVE('',#297,#296,#162,.T.);
#362=EDGE_CURVE('',#298,#297,#163,.T.);
#363=EDGE_CURVE('',#299,#298,#40,.T.);
#364=EDGE_CURVE('',#300,#299,#164,.T.);
#365=EDGE_CURVE('',#300,#301,#165,.T.);
#366=EDGE_CURVE('',#302,#301,#166,.T.);
#367=EDGE_CURVE('',#302,#294,#167,.T.);
#368=EDGE_CURVE('',#287,#303,#168,.T.);
#369=EDGE_CURVE('',#303,#295,#169,.T.);
#370=EDGE_CURVE('',#304,#304,#41,.T.);
#371=EDGE_CURVE('',#304,#305,#170,.T.);
#372=EDGE_CURVE('',#305,#305,#42,.T.);
#373=EDGE_CURVE('',#303,#306,#171,.T.);
#374=EDGE_CURVE('',#280,#306,#172,.T.);
#375=EDGE_CURVE('',#296,#279,#173,.T.);
#376=EDGE_CURVE('',#306,#286,#174,.T.);
#377=EDGE_CURVE('',#307,#274,#175,.T.);
#378=EDGE_CURVE('',#273,#308,#176,.T.);
#379=EDGE_CURVE('',#308,#307,#177,.T.);
#380=EDGE_CURVE('',#309,#308,#178,.T.);
#381=EDGE_CURVE('',#310,#309,#179,.T.);
#382=EDGE_CURVE('',#310,#307,#180,.T.);
#383=EDGE_CURVE('',#294,#272,#181,.T.);
#384=EDGE_CURVE('',#309,#302,#182,.T.);
#385=EDGE_CURVE('',#311,#311,#43,.T.);
#386=EDGE_CURVE('',#301,#310,#183,.T.);
#387=EDGE_CURVE('',#275,#300,#184,.T.);
#388=EDGE_CURVE('',#312,#312,#44,.T.);
#389=EDGE_CURVE('',#312,#311,#185,.T.);
#390=EDGE_CURVE('',#299,#313,#45,.T.);
#391=EDGE_CURVE('',#313,#314,#186,.T.);
#392=EDGE_CURVE('',#314,#300,#17,.T.);
#393=EDGE_CURVE('',#314,#315,#187,.T.);
#394=EDGE_CURVE('',#315,#275,#18,.T.);
#395=EDGE_CURVE('',#315,#316,#188,.T.);
#396=EDGE_CURVE('',#316,#276,#46,.T.);
#397=EDGE_CURVE('',#317,#277,#47,.T.);
#398=EDGE_CURVE('',#316,#317,#48,.T.);
#399=EDGE_CURVE('',#317,#318,#189,.T.);
#400=EDGE_CURVE('',#318,#278,#19,.T.);
#401=EDGE_CURVE('',#298,#319,#49,.T.);
#402=EDGE_CURVE('',#319,#313,#50,.T.);
#403=EDGE_CURVE('',#320,#319,#190,.T.);
#404=EDGE_CURVE('',#297,#320,#20,.T.);
#405=EDGE_CURVE('',#297,#278,#191,.T.);
#406=EDGE_CURVE('',#318,#320,#192,.T.);
#407=EDGE_CURVE('',#316,#313,#193,.T.);
#408=EDGE_CURVE('',#319,#317,#194,.T.);
#409=ORIENTED_EDGE('',*,*,#321,.F.);
#410=ORIENTED_EDGE('',*,*,#322,.T.);
#411=ORIENTED_EDGE('',*,*,#323,.T.);
#412=ORIENTED_EDGE('',*,*,#324,.F.);
#413=ORIENTED_EDGE('',*,*,#325,.F.);
#414=ORIENTED_EDGE('',*,*,#326,.F.);
#415=ORIENTED_EDGE('',*,*,#327,.F.);
#416=ORIENTED_EDGE('',*,*,#323,.F.);
#417=ORIENTED_EDGE('',*,*,#326,.T.);
#418=ORIENTED_EDGE('',*,*,#328,.T.);
#419=ORIENTED_EDGE('',*,*,#329,.T.);
#420=ORIENTED_EDGE('',*,*,#330,.T.);
#421=ORIENTED_EDGE('',*,*,#331,.F.);
#422=ORIENTED_EDGE('',*,*,#332,.T.);
#423=ORIENTED_EDGE('',*,*,#333,.F.);
#424=ORIENTED_EDGE('',*,*,#334,.F.);
#425=ORIENTED_EDGE('',*,*,#335,.F.);
#426=ORIENTED_EDGE('',*,*,#336,.F.);
#427=ORIENTED_EDGE('',*,*,#337,.F.);
#428=ORIENTED_EDGE('',*,*,#338,.F.);
#429=ORIENTED_EDGE('',*,*,#339,.T.);
#430=ORIENTED_EDGE('',*,*,#340,.F.);
#431=ORIENTED_EDGE('',*,*,#341,.F.);
#432=ORIENTED_EDGE('',*,*,#342,.F.);
#433=ORIENTED_EDGE('',*,*,#343,.T.);
#434=ORIENTED_EDGE('',*,*,#344,.T.);
#435=ORIENTED_EDGE('',*,*,#340,.T.);
#436=ORIENTED_EDGE('',*,*,#342,.T.);
#437=ORIENTED_EDGE('',*,*,#339,.F.);
#438=ORIENTED_EDGE('',*,*,#345,.F.);
#439=ORIENTED_EDGE('',*,*,#346,.F.);
#440=ORIENTED_EDGE('',*,*,#347,.F.);
#441=ORIENTED_EDGE('',*,*,#348,.F.);
#442=ORIENTED_EDGE('',*,*,#349,.F.);
#443=ORIENTED_EDGE('',*,*,#350,.T.);
#444=ORIENTED_EDGE('',*,*,#351,.F.);
#445=ORIENTED_EDGE('',*,*,#350,.F.);
#446=ORIENTED_EDGE('',*,*,#352,.F.);
#447=ORIENTED_EDGE('',*,*,#321,.T.);
#448=ORIENTED_EDGE('',*,*,#353,.F.);
#449=ORIENTED_EDGE('',*,*,#354,.F.);
#450=ORIENTED_EDGE('',*,*,#327,.T.);
#451=ORIENTED_EDGE('',*,*,#341,.T.);
#452=ORIENTED_EDGE('',*,*,#344,.F.);
#453=ORIENTED_EDGE('',*,*,#355,.F.);
#454=ORIENTED_EDGE('',*,*,#353,.T.);
#455=ORIENTED_EDGE('',*,*,#324,.T.);
#456=ORIENTED_EDGE('',*,*,#352,.T.);
#457=ORIENTED_EDGE('',*,*,#356,.F.);
#458=ORIENTED_EDGE('',*,*,#357,.F.);
#459=ORIENTED_EDGE('',*,*,#328,.F.);
#460=ORIENTED_EDGE('',*,*,#325,.T.);
#461=ORIENTED_EDGE('',*,*,#322,.F.);
#462=ORIENTED_EDGE('',*,*,#358,.T.);
#463=ORIENTED_EDGE('',*,*,#356,.T.);
#464=ORIENTED_EDGE('',*,*,#354,.T.);
#465=ORIENTED_EDGE('',*,*,#355,.T.);
#466=ORIENTED_EDGE('',*,*,#343,.F.);
#467=ORIENTED_EDGE('',*,*,#348,.T.);
#468=ORIENTED_EDGE('',*,*,#359,.F.);
#469=ORIENTED_EDGE('',*,*,#360,.T.);
#470=ORIENTED_EDGE('',*,*,#361,.F.);
#471=ORIENTED_EDGE('',*,*,#362,.F.);
#472=ORIENTED_EDGE('',*,*,#363,.F.);
#473=ORIENTED_EDGE('',*,*,#364,.F.);
#474=ORIENTED_EDGE('',*,*,#365,.T.);
#475=ORIENTED_EDGE('',*,*,#366,.F.);
#476=ORIENTED_EDGE('',*,*,#367,.T.);
#477=ORIENTED_EDGE('',*,*,#347,.T.);
#478=ORIENTED_EDGE('',*,*,#368,.T.);
#479=ORIENTED_EDGE('',*,*,#369,.T.);
#480=ORIENTED_EDGE('',*,*,#359,.T.);
#481=ORIENTED_EDGE('',*,*,#370,.F.);
#482=ORIENTED_EDGE('',*,*,#371,.T.);
#483=ORIENTED_EDGE('',*,*,#372,.F.);
#484=ORIENTED_EDGE('',*,*,#371,.F.);
#485=ORIENTED_EDGE('',*,*,#369,.F.);
#486=ORIENTED_EDGE('',*,*,#373,.T.);
#487=ORIENTED_EDGE('',*,*,#374,.F.);
#488=ORIENTED_EDGE('',*,*,#337,.T.);
#489=ORIENTED_EDGE('',*,*,#375,.F.);
#490=ORIENTED_EDGE('',*,*,#360,.F.);
#491=ORIENTED_EDGE('',*,*,#351,.T.);
#492=ORIENTED_EDGE('',*,*,#346,.T.);
#493=ORIENTED_EDGE('',*,*,#376,.F.);
#494=ORIENTED_EDGE('',*,*,#373,.F.);
#495=ORIENTED_EDGE('',*,*,#368,.F.);
#496=ORIENTED_EDGE('',*,*,#345,.T.);
#497=ORIENTED_EDGE('',*,*,#338,.T.);
#498=ORIENTED_EDGE('',*,*,#374,.T.);
#499=ORIENTED_EDGE('',*,*,#376,.T.);
#500=ORIENTED_EDGE('',*,*,#377,.T.);
#501=ORIENTED_EDGE('',*,*,#331,.T.);
#502=ORIENTED_EDGE('',*,*,#378,.T.);
#503=ORIENTED_EDGE('',*,*,#379,.T.);
#504=ORIENTED_EDGE('',*,*,#379,.F.);
#505=ORIENTED_EDGE('',*,*,#380,.F.);
#506=ORIENTED_EDGE('',*,*,#381,.F.);
#507=ORIENTED_EDGE('',*,*,#382,.T.);
#508=ORIENTED_EDGE('',*,*,#378,.F.);
#509=ORIENTED_EDGE('',*,*,#330,.F.);
#510=ORIENTED_EDGE('',*,*,#383,.F.);
#511=ORIENTED_EDGE('',*,*,#367,.F.);
#512=ORIENTED_EDGE('',*,*,#384,.F.);
#513=ORIENTED_EDGE('',*,*,#380,.T.);
#514=ORIENTED_EDGE('',*,*,#385,.T.);
#515=ORIENTED_EDGE('',*,*,#386,.T.);
#516=ORIENTED_EDGE('',*,*,#381,.T.);
#517=ORIENTED_EDGE('',*,*,#384,.T.);
#518=ORIENTED_EDGE('',*,*,#366,.T.);
#519=ORIENTED_EDGE('',*,*,#377,.F.);
#520=ORIENTED_EDGE('',*,*,#382,.F.);
#521=ORIENTED_EDGE('',*,*,#386,.F.);
#522=ORIENTED_EDGE('',*,*,#365,.F.);
#523=ORIENTED_EDGE('',*,*,#387,.F.);
#524=ORIENTED_EDGE('',*,*,#332,.F.);
#525=ORIENTED_EDGE('',*,*,#388,.T.);
#526=ORIENTED_EDGE('',*,*,#358,.F.);
#527=ORIENTED_EDGE('',*,*,#383,.T.);
#528=ORIENTED_EDGE('',*,*,#329,.F.);
#529=ORIENTED_EDGE('',*,*,#357,.T.);
#530=ORIENTED_EDGE('',*,*,#372,.T.);
#531=ORIENTED_EDGE('',*,*,#388,.F.);
#532=ORIENTED_EDGE('',*,*,#389,.T.);
#533=ORIENTED_EDGE('',*,*,#385,.F.);
#534=ORIENTED_EDGE('',*,*,#389,.F.);
#535=ORIENTED_EDGE('',*,*,#364,.T.);
#536=ORIENTED_EDGE('',*,*,#390,.T.);
#537=ORIENTED_EDGE('',*,*,#391,.T.);
#538=ORIENTED_EDGE('',*,*,#392,.T.);
#539=ORIENTED_EDGE('',*,*,#393,.T.);
#540=ORIENTED_EDGE('',*,*,#394,.T.);
#541=ORIENTED_EDGE('',*,*,#387,.T.);
#542=ORIENTED_EDGE('',*,*,#392,.F.);
#543=ORIENTED_EDGE('',*,*,#395,.T.);
#544=ORIENTED_EDGE('',*,*,#396,.T.);
#545=ORIENTED_EDGE('',*,*,#333,.T.);
#546=ORIENTED_EDGE('',*,*,#394,.F.);
#547=ORIENTED_EDGE('',*,*,#397,.T.);
#548=ORIENTED_EDGE('',*,*,#334,.T.);
#549=ORIENTED_EDGE('',*,*,#396,.F.);
#550=ORIENTED_EDGE('',*,*,#398,.T.);
#551=ORIENTED_EDGE('',*,*,#335,.T.);
#552=ORIENTED_EDGE('',*,*,#397,.F.);
#553=ORIENTED_EDGE('',*,*,#399,.T.);
#554=ORIENTED_EDGE('',*,*,#400,.T.);
#555=ORIENTED_EDGE('',*,*,#401,.T.);
#556=ORIENTED_EDGE('',*,*,#402,.T.);
#557=ORIENTED_EDGE('',*,*,#390,.F.);
#558=ORIENTED_EDGE('',*,*,#363,.T.);
#559=ORIENTED_EDGE('',*,*,#403,.T.);
#560=ORIENTED_EDGE('',*,*,#401,.F.);
#561=ORIENTED_EDGE('',*,*,#362,.T.);
#562=ORIENTED_EDGE('',*,*,#404,.T.);
#563=ORIENTED_EDGE('',*,*,#405,.T.);
#564=ORIENTED_EDGE('',*,*,#400,.F.);
#565=ORIENTED_EDGE('',*,*,#406,.T.);
#566=ORIENTED_EDGE('',*,*,#404,.F.);
#567=ORIENTED_EDGE('',*,*,#395,.F.);
#568=ORIENTED_EDGE('',*,*,#393,.F.);
#569=ORIENTED_EDGE('',*,*,#391,.F.);
#570=ORIENTED_EDGE('',*,*,#407,.F.);
#571=ORIENTED_EDGE('',*,*,#370,.T.);
#572=ORIENTED_EDGE('',*,*,#398,.F.);
#573=ORIENTED_EDGE('',*,*,#407,.T.);
#574=ORIENTED_EDGE('',*,*,#402,.F.);
#575=ORIENTED_EDGE('',*,*,#408,.T.);
#576=ORIENTED_EDGE('',*,*,#405,.F.);
#577=ORIENTED_EDGE('',*,*,#361,.T.);
#578=ORIENTED_EDGE('',*,*,#375,.T.);
#579=ORIENTED_EDGE('',*,*,#336,.T.);
#580=ORIENTED_EDGE('',*,*,#399,.F.);
#581=ORIENTED_EDGE('',*,*,#408,.F.);
#582=ORIENTED_EDGE('',*,*,#403,.F.);
#583=ORIENTED_EDGE('',*,*,#406,.F.);
#584=ORIENTED_EDGE('',*,*,#349,.T.);
#585=PLANE('',#655);
#586=PLANE('',#656);
#587=PLANE('',#657);
#588=PLANE('',#659);
#589=PLANE('',#660);
#590=PLANE('',#664);
#591=PLANE('',#665);
#592=PLANE('',#666);
#593=PLANE('',#667);
#594=PLANE('',#669);
#595=PLANE('',#673);
#596=PLANE('',#674);
#597=PLANE('',#675);
#598=PLANE('',#676);
#599=PLANE('',#677);
#600=PLANE('',#678);
#601=PLANE('',#680);
#602=PLANE('',#681);
#603=PLANE('',#683);
#604=PLANE('',#703);
#605=PLANE('',#705);
#606=PLANE('',#706);
#607=ADVANCED_FACE('',(#51),#585,.F.);
#608=ADVANCED_FACE('',(#52),#586,.F.);
#609=ADVANCED_FACE('',(#53),#587,.T.);
#610=ADVANCED_FACE('',(#54),#588,.T.);
#611=ADVANCED_FACE('',(#55),#589,.F.);
#612=ADVANCED_FACE('',(#56),#27,.F.);
#613=ADVANCED_FACE('',(#57),#590,.T.);
#614=ADVANCED_FACE('',(#58),#591,.T.);
#615=ADVANCED_FACE('',(#59),#592,.F.);
#616=ADVANCED_FACE('',(#60),#593,.F.);
#617=ADVANCED_FACE('',(#61),#594,.T.);
#618=ADVANCED_FACE('',(#62),#28,.F.);
#619=ADVANCED_FACE('',(#63,#21),#595,.T.);
#620=ADVANCED_FACE('',(#64),#596,.T.);
#621=ADVANCED_FACE('',(#65),#597,.T.);
#622=ADVANCED_FACE('',(#66),#598,.T.);
#623=ADVANCED_FACE('',(#67),#599,.T.);
#624=ADVANCED_FACE('',(#68,#22),#600,.T.);
#625=ADVANCED_FACE('',(#69),#601,.T.);
#626=ADVANCED_FACE('',(#70,#23),#602,.T.);
#627=ADVANCED_FACE('',(#71,#24),#603,.T.);
#628=ADVANCED_FACE('',(#72),#29,.F.);
#629=ADVANCED_FACE('',(#73),#30,.T.);
#630=ADVANCED_FACE('',(#74),#31,.T.);
#631=ADVANCED_FACE('',(#75),#32,.T.);
#632=ADVANCED_FACE('',(#76),#15,.T.);
#633=ADVANCED_FACE('',(#77),#33,.T.);
#634=ADVANCED_FACE('',(#78),#16,.T.);
#635=ADVANCED_FACE('',(#79),#34,.T.);
#636=ADVANCED_FACE('',(#80),#35,.T.);
#637=ADVANCED_FACE('',(#81,#25),#604,.T.);
#638=ADVANCED_FACE('',(#82),#36,.F.);
#639=ADVANCED_FACE('',(#83),#605,.T.);
#640=ADVANCED_FACE('',(#84,#26),#606,.T.);
#641=CLOSED_SHELL('',(#607,#608,#609,#610,#611,#612,#613,#614,#615,#616,
#617,#618,#619,#620,#621,#622,#623,#624,#625,#626,#627,#628,#629,#630,#631,
#632,#633,#634,#635,#636,#637,#638,#639,#640));
#642=DERIVED_UNIT_ELEMENT(#644,1.);
#643=DERIVED_UNIT_ELEMENT(#1067,-3.);
#644=(
MASS_UNIT()
NAMED_UNIT(*)
SI_UNIT(.KILO.,.GRAM.)
);
#645=DERIVED_UNIT((#642,#643));
#646=MEASURE_REPRESENTATION_ITEM('density measure',
POSITIVE_RATIO_MEASURE(7850.),#645);
#647=PROPERTY_DEFINITION_REPRESENTATION(#652,#649);
#648=PROPERTY_DEFINITION_REPRESENTATION(#653,#650);
#649=REPRESENTATION('material name',(#651),#1064);
#650=REPRESENTATION('density',(#646),#1064);
#651=DESCRIPTIVE_REPRESENTATION_ITEM('Stahl','Stahl');
#652=PROPERTY_DEFINITION('material property','material name',#1074);
#653=PROPERTY_DEFINITION('material property','density of part',#1074);
#654=AXIS2_PLACEMENT_3D('',#883,#707,#708);
#655=AXIS2_PLACEMENT_3D('',#884,#709,#710);
#656=AXIS2_PLACEMENT_3D('',#893,#715,#716);
#657=AXIS2_PLACEMENT_3D('',#899,#720,#721);
#658=AXIS2_PLACEMENT_3D('',#913,#728,#729);
#659=AXIS2_PLACEMENT_3D('',#927,#737,#738);
#660=AXIS2_PLACEMENT_3D('',#933,#742,#743);
#661=AXIS2_PLACEMENT_3D('',#941,#748,#749);
#662=AXIS2_PLACEMENT_3D('',#943,#750,#751);
#663=AXIS2_PLACEMENT_3D('',#946,#753,#754);
#664=AXIS2_PLACEMENT_3D('',#947,#755,#756);
#665=AXIS2_PLACEMENT_3D('',#953,#760,#761);
#666=AXIS2_PLACEMENT_3D('',#955,#763,#764);
#667=AXIS2_PLACEMENT_3D('',#959,#767,#768);
#668=AXIS2_PLACEMENT_3D('',#971,#774,#775);
#669=AXIS2_PLACEMENT_3D('',#979,#780,#781);
#670=AXIS2_PLACEMENT_3D('',#983,#784,#785);
#671=AXIS2_PLACEMENT_3D('',#985,#786,#787);
#672=AXIS2_PLACEMENT_3D('',#988,#789,#790);
#673=AXIS2_PLACEMENT_3D('',#989,#791,#792);
#674=AXIS2_PLACEMENT_3D('',#994,#796,#797);
#675=AXIS2_PLACEMENT_3D('',#996,#799,#800);
#676=AXIS2_PLACEMENT_3D('',#997,#801,#802);
#677=AXIS2_PLACEMENT_3D('',#1003,#806,#807);
#678=AXIS2_PLACEMENT_3D('',#1009,#811,#812);
#679=AXIS2_PLACEMENT_3D('',#1013,#815,#816);
#680=AXIS2_PLACEMENT_3D('',#1014,#817,#818);
#681=AXIS2_PLACEMENT_3D('',#1016,#820,#821);
#682=AXIS2_PLACEMENT_3D('',#1019,#823,#824);
#683=AXIS2_PLACEMENT_3D('',#1020,#825,#826);
#684=AXIS2_PLACEMENT_3D('',#1021,#827,#828);
#685=AXIS2_PLACEMENT_3D('',#1023,#830,#831);
#686=AXIS2_PLACEMENT_3D('',#1025,#832,#833);
#687=AXIS2_PLACEMENT_3D('',#1028,#835,#836);
#688=AXIS2_PLACEMENT_3D('',#1029,#837,#838);
#689=AXIS2_PLACEMENT_3D('',#1032,#840,#841);
#690=AXIS2_PLACEMENT_3D('',#1033,#842,#843);
#691=AXIS2_PLACEMENT_3D('',#1036,#845,#846);
#692=AXIS2_PLACEMENT_3D('',#1037,#847,#848);
#693=AXIS2_PLACEMENT_3D('',#1039,#849,#850);
#694=AXIS2_PLACEMENT_3D('',#1040,#851,#852);
#695=AXIS2_PLACEMENT_3D('',#1041,#853,#854);
#696=AXIS2_PLACEMENT_3D('',#1044,#856,#857);
#697=AXIS2_PLACEMENT_3D('',#1045,#858,#859);
#698=AXIS2_PLACEMENT_3D('',#1047,#860,#861);
#699=AXIS2_PLACEMENT_3D('',#1048,#862,#863);
#700=AXIS2_PLACEMENT_3D('',#1049,#864,#865);
#701=AXIS2_PLACEMENT_3D('',#1052,#867,#868);
#702=AXIS2_PLACEMENT_3D('',#1053,#869,#870);
#703=AXIS2_PLACEMENT_3D('',#1056,#873,#874);
#704=AXIS2_PLACEMENT_3D('',#1058,#876,#877);
#705=AXIS2_PLACEMENT_3D('',#1060,#879,#880);
#706=AXIS2_PLACEMENT_3D('',#1061,#881,#882);
#707=DIRECTION('axis',(0.,0.,1.));
#708=DIRECTION('refdir',(1.,0.,0.));
#709=DIRECTION('center_axis',(0.,0.,-1.));
#710=DIRECTION('ref_axis',(0.,1.,0.));
#711=DIRECTION('',(0.,1.,0.));
#712=DIRECTION('',(1.,0.,0.));
#713=DIRECTION('',(0.,1.,0.));
#714=DIRECTION('',(1.,0.,0.));
#715=DIRECTION('center_axis',(1.,0.,0.));
#716=DIRECTION('ref_axis',(0.,0.,-1.));
#717=DIRECTION('',(0.,0.,-1.));
#718=DIRECTION('',(0.,-1.,0.));
#719=DIRECTION('',(0.,0.,1.));
#720=DIRECTION('center_axis',(0.,0.,1.));
#721=DIRECTION('ref_axis',(1.,0.,0.));
#722=DIRECTION('',(-1.,0.,0.));
#723=DIRECTION('',(0.,1.,0.));
#724=DIRECTION('',(1.,0.,0.));
#725=DIRECTION('',(0.,-1.,0.));
#726=DIRECTION('',(-1.,0.,0.));
#727=DIRECTION('',(0.,1.,0.));
#728=DIRECTION('center_axis',(0.,0.,1.));
#729=DIRECTION('ref_axis',(0.707106781186547,-0.707106781186548,0.));
#730=DIRECTION('',(1.,0.,0.));
#731=DIRECTION('',(0.,1.,0.));
#732=DIRECTION('',(-1.,0.,0.));
#733=DIRECTION('',(0.,-1.,0.));
#734=DIRECTION('',(-1.,0.,0.));
#735=DIRECTION('',(0.,-1.,0.));
#736=DIRECTION('',(1.,0.,0.));
#737=DIRECTION('center_axis',(1.,0.,0.));
#738=DIRECTION('ref_axis',(0.,0.,-1.));
#739=DIRECTION('',(0.,0.,1.));
#740=DIRECTION('',(0.,1.,0.));
#741=DIRECTION('',(0.,0.,1.));
#742=DIRECTION('center_axis',(0.,-1.,0.));
#743=DIRECTION('ref_axis',(0.,0.,-1.));
#744=DIRECTION('',(-0.707106781186546,0.,0.707106781186549));
#745=DIRECTION('',(0.,0.,1.));
#746=DIRECTION('',(0.707106781186548,0.,0.707106781186547));
#747=DIRECTION('',(1.,0.,0.));
#748=DIRECTION('center_axis',(0.,-1.,0.));
#749=DIRECTION('ref_axis',(-1.,0.,0.));
#750=DIRECTION('center_axis',(0.,-1.,0.));
#751=DIRECTION('ref_axis',(-1.,0.,0.));
#752=DIRECTION('',(0.,-1.,0.));
#753=DIRECTION('center_axis',(0.,1.,0.));
#754=DIRECTION('ref_axis',(-1.,0.,0.));
#755=DIRECTION('center_axis',(-0.999999999999999,0.,4.47034841366544E-8));
#756=DIRECTION('ref_axis',(4.47034841366544E-8,0.,0.999999999999999));
#757=DIRECTION('',(-4.47034841366544E-8,0.,-0.999999999999999));
#758=DIRECTION('',(4.47034841366544E-8,0.,0.999999999999999));
#759=DIRECTION('',(0.,1.,0.));
#760=DIRECTION('center_axis',(0.,1.,0.));
#761=DIRECTION('ref_axis',(0.,0.,1.));
#762=DIRECTION('',(1.,0.,0.));
#763=DIRECTION('center_axis',(0.,-1.,0.));
#764=DIRECTION('ref_axis',(0.,0.,-1.));
#765=DIRECTION('',(1.,0.,0.));
#766=DIRECTION('',(0.,0.,-1.));
#767=DIRECTION('center_axis',(0.,0.,1.));
#768=DIRECTION('ref_axis',(1.,0.,0.));
#769=DIRECTION('',(0.,-1.,0.));
#770=DIRECTION('',(0.,1.,0.));
#771=DIRECTION('',(-1.,0.,0.));
#772=DIRECTION('',(0.,-1.,0.));
#773=DIRECTION('',(-1.,0.,0.));
#774=DIRECTION('center_axis',(0.,0.,-1.));
#775=DIRECTION('ref_axis',(0.707106781186547,-0.707106781186548,0.));
#776=DIRECTION('',(0.,-1.,0.));
#777=DIRECTION('',(1.,0.,0.));
#778=DIRECTION('',(0.,1.,0.));
#779=DIRECTION('',(-1.,0.,0.));
#780=DIRECTION('center_axis',(0.707106781186547,0.,-0.707106781186548));
#781=DIRECTION('ref_axis',(-0.707106781186548,0.,-0.707106781186547));
#782=DIRECTION('',(0.,-1.,0.));
#783=DIRECTION('',(-0.707106781186548,0.,-0.707106781186547));
#784=DIRECTION('center_axis',(1.,0.,0.));
#785=DIRECTION('ref_axis',(0.,-1.,0.));
#786=DIRECTION('center_axis',(1.,0.,0.));
#787=DIRECTION('ref_axis',(0.,-1.,0.));
#788=DIRECTION('',(1.,0.,0.));
#789=DIRECTION('center_axis',(-1.,0.,0.));
#790=DIRECTION('ref_axis',(0.,-1.,0.));
#791=DIRECTION('center_axis',(0.,-1.,0.));
#792=DIRECTION('ref_axis',(0.,0.,-1.));
#793=DIRECTION('',(0.,0.,1.));
#794=DIRECTION('',(0.707106781186546,0.,-0.707106781186549));
#795=DIRECTION('',(0.,0.,1.));
#796=DIRECTION('center_axis',(1.,0.,0.));
#797=DIRECTION('ref_axis',(0.,1.,0.));
#798=DIRECTION('',(0.,1.,0.));
#799=DIRECTION('center_axis',(0.707106781186549,0.,0.707106781186546));
#800=DIRECTION('ref_axis',(0.707106781186546,0.,-0.707106781186549));
#801=DIRECTION('center_axis',(0.707106781186548,0.,0.707106781186548));
#802=DIRECTION('ref_axis',(0.707106781186548,0.,-0.707106781186548));
#803=DIRECTION('',(-0.707106781186548,0.,0.707106781186548));
#804=DIRECTION('',(0.707106781186548,0.,-0.707106781186548));
#805=DIRECTION('',(0.,1.,0.));
#806=DIRECTION('center_axis',(1.,0.,0.));
#807=DIRECTION('ref_axis',(0.,1.,0.));
#808=DIRECTION('',(0.,0.,1.));
#809=DIRECTION('',(0.,-1.,0.));
#810=DIRECTION('',(0.,0.,1.));
#811=DIRECTION('center_axis',(0.,-1.,0.));
#812=DIRECTION('ref_axis',(1.,0.,0.));
#813=DIRECTION('',(0.,0.,1.));
#814=DIRECTION('',(-0.707106781186546,0.,-0.707106781186549));
#815=DIRECTION('center_axis',(0.,1.,0.));
#816=DIRECTION('ref_axis',(-1.,0.,0.));
#817=DIRECTION('center_axis',(0.707106781186549,0.,-0.707106781186546));
#818=DIRECTION('ref_axis',(-0.707106781186546,0.,-0.707106781186549));
#819=DIRECTION('',(0.707106781186546,0.,0.707106781186549));
#820=DIRECTION('center_axis',(0.,1.,0.));
#821=DIRECTION('ref_axis',(-1.,0.,0.));
#822=DIRECTION('',(0.,0.,-1.));
#823=DIRECTION('center_axis',(0.,-1.,0.));
#824=DIRECTION('ref_axis',(-1.,0.,0.));
#825=DIRECTION('center_axis',(1.,0.,0.));
#826=DIRECTION('ref_axis',(0.,1.,0.));
#827=DIRECTION('center_axis',(0.,-1.,0.));
#828=DIRECTION('ref_axis',(-1.,0.,0.));
#829=DIRECTION('',(0.,-1.,0.));
#830=DIRECTION('center_axis',(0.,-1.,0.));
#831=DIRECTION('ref_axis',(-0.707106781186547,0.,-0.707106781186548));
#832=DIRECTION('center_axis',(0.,1.,0.));
#833=DIRECTION('ref_axis',(0.,0.,-1.));
#834=DIRECTION('',(0.,1.,0.));
#835=DIRECTION('center_axis',(0.,-0.707106781186547,-0.707106781186548));
#836=DIRECTION('ref_axis',(0.,0.707106781186548,-0.707106781186547));
#837=DIRECTION('center_axis',(0.,0.,-1.));
#838=DIRECTION('ref_axis',(-0.707106781186548,0.707106781186548,0.));
#839=DIRECTION('',(0.,0.,1.));
#840=DIRECTION('center_axis',(0.,0.707106781186548,-0.707106781186548));
#841=DIRECTION('ref_axis',(0.,0.707106781186548,0.707106781186548));
#842=DIRECTION('center_axis',(0.,1.,0.));
#843=DIRECTION('ref_axis',(-0.707106781186547,0.,0.707106781186548));
#844=DIRECTION('',(0.,-1.,0.));
#845=DIRECTION('center_axis',(0.,1.,0.));
#846=DIRECTION('ref_axis',(-1.,0.,0.));
#847=DIRECTION('center_axis',(0.,0.,1.));
#848=DIRECTION('ref_axis',(1.,0.,0.));
#849=DIRECTION('center_axis',(1.,0.,0.));
#850=DIRECTION('ref_axis',(0.,1.,0.));
#851=DIRECTION('center_axis',(0.,0.,-1.));
#852=DIRECTION('ref_axis',(0.707106781186547,-0.707106781186548,0.));
#853=DIRECTION('center_axis',(-1.,0.,0.));
#854=DIRECTION('ref_axis',(0.,0.707106781186546,0.707106781186549));
#855=DIRECTION('',(-1.,0.,0.));
#856=DIRECTION('center_axis',(0.707106781186548,0.,0.707106781186548));
#857=DIRECTION('ref_axis',(0.707106781186548,0.,-0.707106781186548));
#858=DIRECTION('center_axis',(0.,0.,-1.));
#859=DIRECTION('ref_axis',(-1.,0.,0.));
#860=DIRECTION('center_axis',(1.,0.,0.));
#861=DIRECTION('ref_axis',(0.,0.,-1.));
#862=DIRECTION('center_axis',(0.,0.,1.));
#863=DIRECTION('ref_axis',(0.707106781186547,-0.707106781186548,0.));
#864=DIRECTION('center_axis',(-1.,0.,0.));
#865=DIRECTION('ref_axis',(0.,0.707106781186546,-0.707106781186549));
#866=DIRECTION('',(1.,0.,0.));
#867=DIRECTION('center_axis',(0.707106781186547,7.85046229341891E-16,-0.707106781186548));
#868=DIRECTION('ref_axis',(0.707106781186548,-7.8504622934189E-16,0.707106781186547));
#869=DIRECTION('center_axis',(0.,0.,-1.));
#870=DIRECTION('ref_axis',(-0.707106781186546,0.707106781186549,0.));
#871=DIRECTION('',(0.,0.,1.));
#872=DIRECTION('',(0.,0.,-1.));
#873=DIRECTION('center_axis',(-1.,0.,0.));
#874=DIRECTION('ref_axis',(0.,0.,1.));
#875=DIRECTION('',(0.,0.,-1.));
#876=DIRECTION('center_axis',(0.,0.,-1.));
#877=DIRECTION('ref_axis',(0.707106781186547,-0.707106781186547,0.));
#878=DIRECTION('',(0.,0.,1.));
#879=DIRECTION('center_axis',(-1.,0.,0.));
#880=DIRECTION('ref_axis',(0.,0.,1.));
#881=DIRECTION('center_axis',(0.,1.,0.));
#882=DIRECTION('ref_axis',(0.,0.,-1.));
#883=CARTESIAN_POINT('',(0.,0.,0.));
#884=CARTESIAN_POINT('Origin',(9.99999979883432,0.,0.499999988824129));
#885=CARTESIAN_POINT('',(9.99999979883432,0.,0.499999988824129));
#886=CARTESIAN_POINT('',(9.99999979883432,8.,0.499999988824129));
#887=CARTESIAN_POINT('',(9.99999979883432,0.,0.499999988824129));
#888=CARTESIAN_POINT('',(10.9999997988343,0.,0.499999988824129));
#889=CARTESIAN_POINT('',(9.99999979883432,0.,0.499999988824129));
#890=CARTESIAN_POINT('',(10.9999997988343,8.,0.499999988824129));
#891=CARTESIAN_POINT('',(10.9999997988343,0.,0.499999988824129));
#892=CARTESIAN_POINT('',(11.7499997485429,8.,0.499999988824129));
#893=CARTESIAN_POINT('Origin',(10.9999997988343,0.,0.499999988824129));
#894=CARTESIAN_POINT('',(10.9999997988343,0.,30.));
#895=CARTESIAN_POINT('',(10.9999997988343,0.,7.74999999441206));
#896=CARTESIAN_POINT('',(10.9999997988343,8.,30.));
#897=CARTESIAN_POINT('',(10.9999997988343,7.50000011175871,30.));
#898=CARTESIAN_POINT('',(10.9999997988343,8.,7.74999999441206));
#899=CARTESIAN_POINT('Origin',(12.4999999627471,15.0000002235174,30.));
#900=CARTESIAN_POINT('',(0.,0.,30.));
#901=CARTESIAN_POINT('',(13.7499999813735,0.,30.));
#902=CARTESIAN_POINT('',(0.,30.,30.));
#903=CARTESIAN_POINT('',(0.,30.,30.));
#904=CARTESIAN_POINT('',(29.,30.,30.));
#905=CARTESIAN_POINT('',(30.,30.,30.));
#906=CARTESIAN_POINT('',(29.,35.0000005215406,30.));
#907=CARTESIAN_POINT('',(29.,22.5000001117587,30.));
#908=CARTESIAN_POINT('',(-8.0000000745058,35.0000005215406,30.));
#909=CARTESIAN_POINT('',(-5.00000007450581,35.0000005215406,30.));
#910=CARTESIAN_POINT('',(-8.00000007450581,-65.0000011175871,30.));
#911=CARTESIAN_POINT('',(-8.00000007450581,25.000000372529,30.));
#912=CARTESIAN_POINT('',(-20.0000000745058,-77.0000011175871,30.));
#913=CARTESIAN_POINT('Origin',(-20.0000000745058,-65.0000011175871,30.));
#914=CARTESIAN_POINT('',(-40.0000000745058,-77.0000011175871,30.));
#915=CARTESIAN_POINT('',(3.74999994412065,-77.0000011175871,30.));
#916=CARTESIAN_POINT('',(-40.0000000745058,-80.0000000745058,30.));
#917=CARTESIAN_POINT('',(-40.0000000745058,-80.0000000745058,30.));
#918=CARTESIAN_POINT('',(29.,-80.0000000745058,30.));
#919=CARTESIAN_POINT('',(30.,-80.0000000745058,30.));
#920=CARTESIAN_POINT('',(29.,0.,30.));
#921=CARTESIAN_POINT('',(29.,5.00000007450581,30.));
#922=CARTESIAN_POINT('',(18.9999996200204,0.,30.));
#923=CARTESIAN_POINT('',(13.7499999813735,0.,30.));
#924=CARTESIAN_POINT('',(18.9999996200204,8.,30.));
#925=CARTESIAN_POINT('',(18.9999996200204,0.,30.));
#926=CARTESIAN_POINT('',(18.0000002682209,8.,30.));
#927=CARTESIAN_POINT('Origin',(18.9999996200204,0.,30.));
#928=CARTESIAN_POINT('',(18.9999996200204,0.,0.));
#929=CARTESIAN_POINT('',(18.9999996200204,0.,22.5));
#930=CARTESIAN_POINT('',(18.9999996200204,8.,0.));
#931=CARTESIAN_POINT('',(18.9999996200204,0.,0.));
#932=CARTESIAN_POINT('',(18.9999996200204,8.,0.499999988824129));
#933=CARTESIAN_POINT('Origin',(15.,0.,15.));
#934=CARTESIAN_POINT('',(30.,0.,29.));
#935=CARTESIAN_POINT('',(29.5,0.,29.5));
#936=CARTESIAN_POINT('',(30.,0.,1.));
#937=CARTESIAN_POINT('',(30.,0.,7.5));
#938=CARTESIAN_POINT('',(29.,0.,0.));
#939=CARTESIAN_POINT('',(29.5,0.,0.499999999999996));
#940=CARTESIAN_POINT('',(13.7499999813735,0.,0.));
#941=CARTESIAN_POINT('Origin',(-30.0000004470348,-75.0000011175871,15.0000002235174));
#942=CARTESIAN_POINT('',(-27.0000004023314,-75.0000011175871,15.0000002235174));
#943=CARTESIAN_POINT('Origin',(-30.0000004470348,-75.0000011175871,15.0000002235174));
#944=CARTESIAN_POINT('',(-27.0000004023314,-80.0000000745058,15.0000002235174));
#945=CARTESIAN_POINT('',(-27.0000004023314,-75.0000011175871,15.0000002235174));
#946=CARTESIAN_POINT('Origin',(-30.0000004470348,-80.0000000745058,15.0000002235174));
#947=CARTESIAN_POINT('Origin',(9.99999977648258,0.,0.));
#948=CARTESIAN_POINT('',(9.99999977648258,0.,0.));
#949=CARTESIAN_POINT('',(10.0000001117587,0.,7.5000001117587));
#950=CARTESIAN_POINT('',(9.99999977648258,8.,0.));
#951=CARTESIAN_POINT('',(9.99999979883432,8.,0.499999988824129));
#952=CARTESIAN_POINT('',(9.99999977648258,0.,0.));
#953=CARTESIAN_POINT('Origin',(13.4999996982515,8.,15.));
#954=CARTESIAN_POINT('',(16.9999996200204,8.,0.));
#955=CARTESIAN_POINT('Origin',(15.,0.,15.));
#956=CARTESIAN_POINT('',(0.,0.,0.));
#957=CARTESIAN_POINT('',(13.7499999813735,0.,0.));
#958=CARTESIAN_POINT('',(0.,0.,7.5));
#959=CARTESIAN_POINT('Origin',(12.4999999627471,15.0000002235174,0.));
#960=CARTESIAN_POINT('',(0.,30.,0.));
#961=CARTESIAN_POINT('',(0.,11.5000001117587,0.));
#962=CARTESIAN_POINT('',(29.,-80.0000000745058,0.));
#963=CARTESIAN_POINT('',(29.,5.00000007450581,0.));
#964=CARTESIAN_POINT('',(-40.0000000745058,-80.0000000745058,0.));
#965=CARTESIAN_POINT('',(-5.00000007450581,-80.0000000745058,0.));
#966=CARTESIAN_POINT('',(-40.0000000745058,-77.0000011175871,0.));
#967=CARTESIAN_POINT('',(-40.0000000745058,-75.0000011175871,0.));
#968=CARTESIAN_POINT('',(-20.0000000745058,-77.0000011175871,0.));
#969=CARTESIAN_POINT('',(3.74999994412065,-77.0000011175871,0.));
#970=CARTESIAN_POINT('',(-8.00000007450581,-65.0000011175871,0.));
#971=CARTESIAN_POINT('Origin',(-20.0000000745058,-65.0000011175871,0.));
#972=CARTESIAN_POINT('',(-8.00000007450581,35.0000005215406,0.));
#973=CARTESIAN_POINT('',(-8.00000007450581,25.000000372529,0.));
#974=CARTESIAN_POINT('',(29.,35.0000005215406,0.));
#975=CARTESIAN_POINT('',(-5.00000007450581,35.0000005215406,0.));
#976=CARTESIAN_POINT('',(29.,30.,0.));
#977=CARTESIAN_POINT('',(29.,22.5000001117587,0.));
#978=CARTESIAN_POINT('',(30.,30.,0.));
#979=CARTESIAN_POINT('Origin',(29.5,5.00000007450581,0.5));
#980=CARTESIAN_POINT('',(30.,-80.0000000745058,1.));
#981=CARTESIAN_POINT('',(30.,5.00000007450581,1.));
#982=CARTESIAN_POINT('',(20.7499999813735,-80.0000000745058,-8.25000001862645));
#983=CARTESIAN_POINT('Origin',(-10.0000000745058,15.0000002235174,15.0000002235174));
#984=CARTESIAN_POINT('',(-10.0000000745058,18.0000002235174,15.0000002235174));
#985=CARTESIAN_POINT('Origin',(-10.0000000745058,15.0000002235174,15.0000002235174));
#986=CARTESIAN_POINT('',(-7.45058059692383E-8,18.0000002235174,15.0000002235174));
#987=CARTESIAN_POINT('',(-10.0000000745058,18.0000002235174,15.0000002235174));
#988=CARTESIAN_POINT('Origin',(0.,15.0000002235174,15.0000002235174));
#989=CARTESIAN_POINT('Origin',(-5.00000007450581,-80.0000000745058,0.));
#990=CARTESIAN_POINT('',(30.,-80.0000000745058,29.));
#991=CARTESIAN_POINT('',(30.,-80.0000000745058,0.));
#992=CARTESIAN_POINT('',(28.2499999813736,-80.0000000745058,30.7500000186264));
#993=CARTESIAN_POINT('',(-40.0000000745058,-80.0000000745058,0.));
#994=CARTESIAN_POINT('Origin',(30.,-5.00000007450581,0.));
#995=CARTESIAN_POINT('',(30.,5.00000007450581,29.));
#996=CARTESIAN_POINT('Origin',(29.5,5.00000007450581,29.5));
#997=CARTESIAN_POINT('Origin',(29.5,22.5000001117587,29.5));
#998=CARTESIAN_POINT('',(30.,35.0000005215406,29.));
#999=CARTESIAN_POINT('',(37.,35.0000005215406,22.));
#1000=CARTESIAN_POINT('',(30.,30.,29.));
#1001=CARTESIAN_POINT('',(29.5,30.,29.5));
#1002=CARTESIAN_POINT('',(30.,22.5000001117587,29.));
#1003=CARTESIAN_POINT('Origin',(30.,30.,0.));
#1004=CARTESIAN_POINT('',(30.,30.,1.));
#1005=CARTESIAN_POINT('',(30.,30.,0.));
#1006=CARTESIAN_POINT('',(30.,35.0000005215406,1.));
#1007=CARTESIAN_POINT('',(30.,22.5000001117587,1.));
#1008=CARTESIAN_POINT('',(30.,35.0000005215406,0.));
#1009=CARTESIAN_POINT('Origin',(0.,30.,0.));
#1010=CARTESIAN_POINT('',(0.,30.,0.));
#1011=CARTESIAN_POINT('',(22.,30.,-7.));
#1012=CARTESIAN_POINT('',(18.,30.,15.));
#1013=CARTESIAN_POINT('Origin',(15.,30.,15.));
#1014=CARTESIAN_POINT('Origin',(29.5,22.5000001117587,0.5));
#1015=CARTESIAN_POINT('',(29.5,35.0000005215406,0.499999999999999));
#1016=CARTESIAN_POINT('Origin',(30.,35.0000005215406,0.));
#1017=CARTESIAN_POINT('',(-8.0000000745058,35.0000005215406,0.));
#1018=CARTESIAN_POINT('',(18.,35.0000005215406,15.));
#1019=CARTESIAN_POINT('Origin',(15.,35.0000005215406,15.));
#1020=CARTESIAN_POINT('Origin',(0.,0.,0.));
#1021=CARTESIAN_POINT('Origin',(15.,35.0000005215406,15.));
#1022=CARTESIAN_POINT('',(18.,35.0000005215406,15.));
#1023=CARTESIAN_POINT('Origin',(-8.00000007450581,25.000000372529,2.));
#1024=CARTESIAN_POINT('',(-10.0000000745058,-65.0000011175871,2.));
#1025=CARTESIAN_POINT('Origin',(-8.00000007450581,-65.0000011175871,2.));
#1026=CARTESIAN_POINT('',(-10.0000000745058,33.0000005215406,2.));
#1027=CARTESIAN_POINT('',(-10.0000000745058,25.000000372529,2.));
#1028=CARTESIAN_POINT('Origin',(-8.00000007450581,33.0000005215406,2.));
#1029=CARTESIAN_POINT('Origin',(-8.0000000745058,33.0000005215406,0.));
#1030=CARTESIAN_POINT('',(-10.0000000745058,33.0000005215406,28.));
#1031=CARTESIAN_POINT('',(-10.0000000745058,33.0000005215406,0.));
#1032=CARTESIAN_POINT('Origin',(-8.0000000745058,33.0000005215406,28.));
#1033=CARTESIAN_POINT('Origin',(-8.00000007450581,25.000000372529,28.));
#1034=CARTESIAN_POINT('',(-10.0000000745058,-65.0000011175871,28.));
#1035=CARTESIAN_POINT('',(-10.0000000745058,25.000000372529,28.));
#1036=CARTESIAN_POINT('Origin',(-8.00000007450581,-65.0000011175871,28.));
#1037=CARTESIAN_POINT('Origin',(-20.0000000745058,-65.0000011175871,28.));
#1038=CARTESIAN_POINT('',(-20.0000000745058,-75.0000011175871,28.));
#1039=CARTESIAN_POINT('Origin',(-20.0000000745058,-77.0000011175871,28.));
#1040=CARTESIAN_POINT('Origin',(-20.0000000745058,-65.0000011175871,28.));
#1041=CARTESIAN_POINT('Origin',(3.74999994412065,-77.0000011175871,28.));
#1042=CARTESIAN_POINT('',(-38.0000000745058,-75.0000011175871,28.));
#1043=CARTESIAN_POINT('',(3.74999994412065,-75.0000011175871,28.));
#1044=CARTESIAN_POINT('Origin',(-38.0000000745058,-77.0000011175871,28.));
#1045=CARTESIAN_POINT('Origin',(-20.0000000745058,-65.0000011175871,2.));
#1046=CARTESIAN_POINT('',(-20.0000000745058,-75.0000011175871,2.));
#1047=CARTESIAN_POINT('Origin',(-20.0000000745058,-77.0000011175871,2.));
#1048=CARTESIAN_POINT('Origin',(-20.0000000745058,-65.0000011175871,2.));
#1049=CARTESIAN_POINT('Origin',(3.74999994412065,-77.0000011175871,2.));
#1050=CARTESIAN_POINT('',(-38.0000000745058,-75.0000011175871,2.));
#1051=CARTESIAN_POINT('',(3.74999994412065,-75.0000011175871,2.));
#1052=CARTESIAN_POINT('Origin',(-38.0000000745058,-77.0000011175871,2.));
#1053=CARTESIAN_POINT('Origin',(-38.0000000745058,-77.0000011175871,22.5));
#1054=CARTESIAN_POINT('',(-40.0000000745058,-77.0000011175871,22.5));
#1055=CARTESIAN_POINT('',(-38.0000000745058,-75.0000011175871,22.5));
#1056=CARTESIAN_POINT('Origin',(-10.0000000745058,35.0000005215406,0.));
#1057=CARTESIAN_POINT('',(-10.0000000745058,-65.0000011175871,15.));
#1058=CARTESIAN_POINT('Origin',(-20.0000000745058,-65.0000011175871,15.));
#1059=CARTESIAN_POINT('',(-20.0000000745058,-75.0000011175871,15.));
#1060=CARTESIAN_POINT('Origin',(-40.0000000745058,-77.5000005960464,15.));
#1061=CARTESIAN_POINT('Origin',(-5.00000007450581,-75.0000011175871,30.));
#1062=UNCERTAINTY_MEASURE_WITH_UNIT(LENGTH_MEASURE(0.01),#1066,
'DISTANCE_ACCURACY_VALUE',
'Maximum model space distance between geometric entities at asserted c
onnectivities');
#1063=UNCERTAINTY_MEASURE_WITH_UNIT(LENGTH_MEASURE(0.01),#1066,
'DISTANCE_ACCURACY_VALUE',
'Maximum model space distance between geometric entities at asserted c
onnectivities');
#1064=(
GEOMETRIC_REPRESENTATION_CONTEXT(3)
GLOBAL_UNCERTAINTY_ASSIGNED_CONTEXT((#1062))
GLOBAL_UNIT_ASSIGNED_CONTEXT((#1066,#1068,#1069))
REPRESENTATION_CONTEXT('','3D')
);
#1065=(
GEOMETRIC_REPRESENTATION_CONTEXT(3)
GLOBAL_UNCERTAINTY_ASSIGNED_CONTEXT((#1063))
GLOBAL_UNIT_ASSIGNED_CONTEXT((#1066,#1068,#1069))
REPRESENTATION_CONTEXT('','3D')
);
#1066=(
LENGTH_UNIT()
NAMED_UNIT(*)
SI_UNIT(.MILLI.,.METRE.)
);
#1067=(
LENGTH_UNIT()
NAMED_UNIT(*)
SI_UNIT($,.METRE.)
);
#1068=(
NAMED_UNIT(*)
PLANE_ANGLE_UNIT()
SI_UNIT($,.RADIAN.)
);
#1069=(
NAMED_UNIT(*)
SI_UNIT($,.STERADIAN.)
SOLID_ANGLE_UNIT()
);
#1070=SHAPE_DEFINITION_REPRESENTATION(#1071,#1072);
#1071=PRODUCT_DEFINITION_SHAPE('',$,#1074);
#1072=SHAPE_REPRESENTATION('',(#654),#1064);
#1073=PRODUCT_DEFINITION_CONTEXT('part definition',#1078,'design');
#1074=PRODUCT_DEFINITION('Item Halter (v4~recovered)',
'Item Halter (v4~recovered)',#1075,#1073);
#1075=PRODUCT_DEFINITION_FORMATION('',$,#1080);
#1076=PRODUCT_RELATED_PRODUCT_CATEGORY('Item Halter (v4~recovered)',
'Item Halter (v4~recovered)',(#1080));
#1077=APPLICATION_PROTOCOL_DEFINITION('international standard',
'automotive_design',2009,#1078);
#1078=APPLICATION_CONTEXT(
'Core Data for Automotive Mechanical Design Process');
#1079=PRODUCT_CONTEXT('part definition',#1078,'mechanical');
#1080=PRODUCT('Item Halter (v4~recovered)','Item Halter (v4~recovered)',
$,(#1079));
#1081=PRESENTATION_STYLE_ASSIGNMENT((#1082));
#1082=SURFACE_STYLE_USAGE(.BOTH.,#1083);
#1083=SURFACE_SIDE_STYLE('',(#1084));
#1084=SURFACE_STYLE_FILL_AREA(#1085);
#1085=FILL_AREA_STYLE('Stahl - satiniert',(#1086));
#1086=FILL_AREA_STYLE_COLOUR('Stahl - satiniert',#1087);
#1087=COLOUR_RGB('Stahl - satiniert',0.627450980392157,0.627450980392157,
0.627450980392157);
ENDSEC;
END-ISO-10303-21;
