ISO-10303-21;
HEADER;
/* Generated by software containing ST-Developer
 * from STEP Tools, Inc. (www.steptools.com) 
 */

FILE_DESCRIPTION(
/* description */ (''),
/* implementation_level */ '2;1');

FILE_NAME(
/* name */ 'Laser Halter.step',
/* time_stamp */ '2026-02-09T21:54:06+01:00',
/* author */ (''),
/* organization */ (''),
/* preprocessor_version */ 'ST-DEVELOPER v20.1',
/* originating_system */ 'Autodesk Translation Framework v14.21.0.0',
/* authorisation */ '');

FILE_SCHEMA (('AUTOMOTIVE_DESIGN { 1 0 10303 214 3 1 1 }'));
ENDSEC;

DATA;
#10=MECHANICAL_DESIGN_GEOMETRIC_PRESENTATION_REPRESENTATION('',(#13),#1722);
#11=SHAPE_REPRESENTATION_RELATIONSHIP('SRR','None',#1729,#12);
#12=ADVANCED_BREP_SHAPE_REPRESENTATION('',(#14),#1721);
#13=STYLED_ITEM('',(#1738),#14);
#14=MANIFOLD_SOLID_BREP('K\X\F6rper1',#1026);
#15=FACE_BOUND('',#132,.T.);
#16=FACE_BOUND('',#133,.T.);
#17=FACE_BOUND('',#134,.T.);
#18=FACE_BOUND('',#135,.T.);
#19=FACE_BOUND('',#136,.T.);
#20=FACE_BOUND('',#175,.T.);
#21=FACE_BOUND('',#176,.T.);
#22=FACE_BOUND('',#177,.T.);
#23=FACE_BOUND('',#178,.T.);
#24=FACE_BOUND('',#179,.T.);
#25=FACE_BOUND('',#180,.T.);
#26=FACE_BOUND('',#181,.T.);
#27=FACE_BOUND('',#182,.T.);
#28=FACE_BOUND('',#183,.T.);
#29=FACE_BOUND('',#184,.T.);
#30=FACE_BOUND('',#185,.T.);
#31=FACE_BOUND('',#186,.T.);
#32=FACE_BOUND('',#187,.T.);
#33=FACE_BOUND('',#188,.T.);
#34=FACE_BOUND('',#189,.T.);
#35=FACE_BOUND('',#191,.T.);
#36=FACE_BOUND('',#192,.T.);
#37=FACE_BOUND('',#193,.T.);
#38=FACE_BOUND('',#194,.T.);
#39=FACE_BOUND('',#195,.T.);
#40=FACE_BOUND('',#196,.T.);
#41=FACE_BOUND('',#197,.T.);
#42=FACE_BOUND('',#198,.T.);
#43=FACE_BOUND('',#199,.T.);
#44=FACE_BOUND('',#200,.T.);
#45=FACE_BOUND('',#201,.T.);
#46=PLANE('',#1046);
#47=PLANE('',#1047);
#48=PLANE('',#1048);
#49=PLANE('',#1049);
#50=PLANE('',#1050);
#51=PLANE('',#1051);
#52=PLANE('',#1052);
#53=PLANE('',#1053);
#54=PLANE('',#1054);
#55=PLANE('',#1097);
#56=PLANE('',#1101);
#57=PLANE('',#1105);
#58=PLANE('',#1109);
#59=PLANE('',#1113);
#60=PLANE('',#1114);
#61=PLANE('',#1115);
#62=PLANE('',#1116);
#63=PLANE('',#1117);
#64=PLANE('',#1121);
#65=PLANE('',#1125);
#66=PLANE('',#1129);
#67=PLANE('',#1133);
#68=PLANE('',#1137);
#69=PLANE('',#1138);
#70=PLANE('',#1139);
#71=FACE_OUTER_BOUND('',#121,.T.);
#72=FACE_OUTER_BOUND('',#122,.T.);
#73=FACE_OUTER_BOUND('',#123,.T.);
#74=FACE_OUTER_BOUND('',#124,.T.);
#75=FACE_OUTER_BOUND('',#125,.T.);
#76=FACE_OUTER_BOUND('',#126,.T.);
#77=FACE_OUTER_BOUND('',#127,.T.);
#78=FACE_OUTER_BOUND('',#128,.T.);
#79=FACE_OUTER_BOUND('',#129,.T.);
#80=FACE_OUTER_BOUND('',#130,.T.);
#81=FACE_OUTER_BOUND('',#131,.T.);
#82=FACE_OUTER_BOUND('',#137,.T.);
#83=FACE_OUTER_BOUND('',#138,.T.);
#84=FACE_OUTER_BOUND('',#139,.T.);
#85=FACE_OUTER_BOUND('',#140,.T.);
#86=FACE_OUTER_BOUND('',#141,.T.);
#87=FACE_OUTER_BOUND('',#142,.T.);
#88=FACE_OUTER_BOUND('',#143,.T.);
#89=FACE_OUTER_BOUND('',#144,.T.);
#90=FACE_OUTER_BOUND('',#145,.T.);
#91=FACE_OUTER_BOUND('',#146,.T.);
#92=FACE_OUTER_BOUND('',#147,.T.);
#93=FACE_OUTER_BOUND('',#148,.T.);
#94=FACE_OUTER_BOUND('',#149,.T.);
#95=FACE_OUTER_BOUND('',#150,.T.);
#96=FACE_OUTER_BOUND('',#151,.T.);
#97=FACE_OUTER_BOUND('',#152,.T.);
#98=FACE_OUTER_BOUND('',#153,.T.);
#99=FACE_OUTER_BOUND('',#154,.T.);
#100=FACE_OUTER_BOUND('',#155,.T.);
#101=FACE_OUTER_BOUND('',#156,.T.);
#102=FACE_OUTER_BOUND('',#157,.T.);
#103=FACE_OUTER_BOUND('',#158,.T.);
#104=FACE_OUTER_BOUND('',#159,.T.);
#105=FACE_OUTER_BOUND('',#160,.T.);
#106=FACE_OUTER_BOUND('',#161,.T.);
#107=FACE_OUTER_BOUND('',#162,.T.);
#108=FACE_OUTER_BOUND('',#163,.T.);
#109=FACE_OUTER_BOUND('',#164,.T.);
#110=FACE_OUTER_BOUND('',#165,.T.);
#111=FACE_OUTER_BOUND('',#166,.T.);
#112=FACE_OUTER_BOUND('',#167,.T.);
#113=FACE_OUTER_BOUND('',#168,.T.);
#114=FACE_OUTER_BOUND('',#169,.T.);
#115=FACE_OUTER_BOUND('',#170,.T.);
#116=FACE_OUTER_BOUND('',#171,.T.);
#117=FACE_OUTER_BOUND('',#172,.T.);
#118=FACE_OUTER_BOUND('',#173,.T.);
#119=FACE_OUTER_BOUND('',#174,.T.);
#120=FACE_OUTER_BOUND('',#190,.T.);
#121=EDGE_LOOP('',(#669,#670,#671,#672));
#122=EDGE_LOOP('',(#673,#674,#675,#676));
#123=EDGE_LOOP('',(#677,#678,#679,#680));
#124=EDGE_LOOP('',(#681,#682,#683,#684));
#125=EDGE_LOOP('',(#685,#686,#687,#688));
#126=EDGE_LOOP('',(#689,#690,#691,#692));
#127=EDGE_LOOP('',(#693,#694,#695,#696));
#128=EDGE_LOOP('',(#697,#698,#699,#700));
#129=EDGE_LOOP('',(#701,#702,#703,#704));
#130=EDGE_LOOP('',(#705,#706,#707,#708));
#131=EDGE_LOOP('',(#709,#710,#711,#712,#713,#714,#715,#716));
#132=EDGE_LOOP('',(#717));
#133=EDGE_LOOP('',(#718));
#134=EDGE_LOOP('',(#719));
#135=EDGE_LOOP('',(#720));
#136=EDGE_LOOP('',(#721));
#137=EDGE_LOOP('',(#722,#723,#724,#725));
#138=EDGE_LOOP('',(#726,#727,#728,#729));
#139=EDGE_LOOP('',(#730,#731,#732,#733));
#140=EDGE_LOOP('',(#734,#735,#736,#737));
#141=EDGE_LOOP('',(#738,#739,#740,#741));
#142=EDGE_LOOP('',(#742,#743,#744,#745));
#143=EDGE_LOOP('',(#746,#747,#748,#749));
#144=EDGE_LOOP('',(#750,#751,#752,#753));
#145=EDGE_LOOP('',(#754,#755,#756,#757));
#146=EDGE_LOOP('',(#758,#759,#760,#761));
#147=EDGE_LOOP('',(#762,#763,#764,#765));
#148=EDGE_LOOP('',(#766,#767,#768,#769));
#149=EDGE_LOOP('',(#770,#771,#772,#773));
#150=EDGE_LOOP('',(#774,#775,#776,#777));
#151=EDGE_LOOP('',(#778,#779,#780,#781));
#152=EDGE_LOOP('',(#782,#783,#784,#785));
#153=EDGE_LOOP('',(#786,#787,#788,#789));
#154=EDGE_LOOP('',(#790,#791,#792,#793));
#155=EDGE_LOOP('',(#794,#795,#796,#797));
#156=EDGE_LOOP('',(#798,#799,#800,#801));
#157=EDGE_LOOP('',(#802,#803,#804,#805));
#158=EDGE_LOOP('',(#806,#807,#808,#809));
#159=EDGE_LOOP('',(#810,#811,#812,#813));
#160=EDGE_LOOP('',(#814,#815,#816,#817));
#161=EDGE_LOOP('',(#818,#819,#820,#821));
#162=EDGE_LOOP('',(#822,#823,#824,#825));
#163=EDGE_LOOP('',(#826,#827,#828,#829));
#164=EDGE_LOOP('',(#830,#831,#832,#833));
#165=EDGE_LOOP('',(#834,#835,#836,#837));
#166=EDGE_LOOP('',(#838,#839,#840,#841));
#167=EDGE_LOOP('',(#842,#843,#844,#845));
#168=EDGE_LOOP('',(#846,#847,#848,#849));
#169=EDGE_LOOP('',(#850,#851,#852,#853));
#170=EDGE_LOOP('',(#854,#855,#856,#857));
#171=EDGE_LOOP('',(#858,#859,#860,#861));
#172=EDGE_LOOP('',(#862,#863,#864,#865));
#173=EDGE_LOOP('',(#866,#867,#868,#869));
#174=EDGE_LOOP('',(#870,#871,#872,#873,#874,#875,#876,#877,#878,#879,#880,
#881,#882,#883,#884,#885,#886,#887,#888,#889,#890,#891,#892,#893));
#175=EDGE_LOOP('',(#894));
#176=EDGE_LOOP('',(#895));
#177=EDGE_LOOP('',(#896));
#178=EDGE_LOOP('',(#897));
#179=EDGE_LOOP('',(#898));
#180=EDGE_LOOP('',(#899));
#181=EDGE_LOOP('',(#900));
#182=EDGE_LOOP('',(#901));
#183=EDGE_LOOP('',(#902));
#184=EDGE_LOOP('',(#903));
#185=EDGE_LOOP('',(#904));
#186=EDGE_LOOP('',(#905));
#187=EDGE_LOOP('',(#906));
#188=EDGE_LOOP('',(#907));
#189=EDGE_LOOP('',(#908));
#190=EDGE_LOOP('',(#909,#910,#911,#912,#913,#914,#915,#916,#917,#918,#919,
#920,#921,#922,#923,#924,#925,#926,#927,#928,#929,#930,#931,#932));
#191=EDGE_LOOP('',(#933));
#192=EDGE_LOOP('',(#934));
#193=EDGE_LOOP('',(#935,#936,#937,#938,#939,#940,#941,#942));
#194=EDGE_LOOP('',(#943));
#195=EDGE_LOOP('',(#944));
#196=EDGE_LOOP('',(#945));
#197=EDGE_LOOP('',(#946));
#198=EDGE_LOOP('',(#947));
#199=EDGE_LOOP('',(#948));
#200=EDGE_LOOP('',(#949));
#201=EDGE_LOOP('',(#950));
#202=LINE('',#1438,#293);
#203=LINE('',#1444,#294);
#204=LINE('',#1449,#295);
#205=LINE('',#1451,#296);
#206=LINE('',#1453,#297);
#207=LINE('',#1454,#298);
#208=LINE('',#1457,#299);
#209=LINE('',#1459,#300);
#210=LINE('',#1460,#301);
#211=LINE('',#1463,#302);
#212=LINE('',#1465,#303);
#213=LINE('',#1466,#304);
#214=LINE('',#1469,#305);
#215=LINE('',#1471,#306);
#216=LINE('',#1472,#307);
#217=LINE('',#1475,#308);
#218=LINE('',#1477,#309);
#219=LINE('',#1478,#310);
#220=LINE('',#1481,#311);
#221=LINE('',#1483,#312);
#222=LINE('',#1484,#313);
#223=LINE('',#1487,#314);
#224=LINE('',#1489,#315);
#225=LINE('',#1490,#316);
#226=LINE('',#1492,#317);
#227=LINE('',#1493,#318);
#228=LINE('',#1508,#319);
#229=LINE('',#1512,#320);
#230=LINE('',#1516,#321);
#231=LINE('',#1521,#322);
#232=LINE('',#1527,#323);
#233=LINE('',#1533,#324);
#234=LINE('',#1539,#325);
#235=LINE('',#1545,#326);
#236=LINE('',#1551,#327);
#237=LINE('',#1557,#328);
#238=LINE('',#1562,#329);
#239=LINE('',#1567,#330);
#240=LINE('',#1572,#331);
#241=LINE('',#1578,#332);
#242=LINE('',#1581,#333);
#243=LINE('',#1584,#334);
#244=LINE('',#1586,#335);
#245=LINE('',#1587,#336);
#246=LINE('',#1593,#337);
#247=LINE('',#1596,#338);
#248=LINE('',#1598,#339);
#249=LINE('',#1599,#340);
#250=LINE('',#1605,#341);
#251=LINE('',#1608,#342);
#252=LINE('',#1610,#343);
#253=LINE('',#1611,#344);
#254=LINE('',#1617,#345);
#255=LINE('',#1620,#346);
#256=LINE('',#1622,#347);
#257=LINE('',#1623,#348);
#258=LINE('',#1629,#349);
#259=LINE('',#1632,#350);
#260=LINE('',#1634,#351);
#261=LINE('',#1635,#352);
#262=LINE('',#1638,#353);
#263=LINE('',#1640,#354);
#264=LINE('',#1641,#355);
#265=LINE('',#1644,#356);
#266=LINE('',#1646,#357);
#267=LINE('',#1647,#358);
#268=LINE('',#1650,#359);
#269=LINE('',#1652,#360);
#270=LINE('',#1653,#361);
#271=LINE('',#1656,#362);
#272=LINE('',#1658,#363);
#273=LINE('',#1659,#364);
#274=LINE('',#1665,#365);
#275=LINE('',#1668,#366);
#276=LINE('',#1670,#367);
#277=LINE('',#1671,#368);
#278=LINE('',#1677,#369);
#279=LINE('',#1680,#370);
#280=LINE('',#1682,#371);
#281=LINE('',#1683,#372);
#282=LINE('',#1689,#373);
#283=LINE('',#1692,#374);
#284=LINE('',#1694,#375);
#285=LINE('',#1695,#376);
#286=LINE('',#1701,#377);
#287=LINE('',#1704,#378);
#288=LINE('',#1706,#379);
#289=LINE('',#1707,#380);
#290=LINE('',#1713,#381);
#291=LINE('',#1715,#382);
#292=LINE('',#1716,#383);
#293=VECTOR('',#1146,1.75);
#294=VECTOR('',#1153,1.75);
#295=VECTOR('',#1158,10.);
#296=VECTOR('',#1159,10.);
#297=VECTOR('',#1160,10.);
#298=VECTOR('',#1161,10.);
#299=VECTOR('',#1164,10.);
#300=VECTOR('',#1165,10.);
#301=VECTOR('',#1166,10.);
#302=VECTOR('',#1169,10.);
#303=VECTOR('',#1170,10.);
#304=VECTOR('',#1171,10.);
#305=VECTOR('',#1174,10.);
#306=VECTOR('',#1175,10.);
#307=VECTOR('',#1176,10.);
#308=VECTOR('',#1179,10.);
#309=VECTOR('',#1180,10.);
#310=VECTOR('',#1181,10.);
#311=VECTOR('',#1184,10.);
#312=VECTOR('',#1185,10.);
#313=VECTOR('',#1186,10.);
#314=VECTOR('',#1189,10.);
#315=VECTOR('',#1190,10.);
#316=VECTOR('',#1191,10.);
#317=VECTOR('',#1194,10.);
#318=VECTOR('',#1195,10.);
#319=VECTOR('',#1212,12.5);
#320=VECTOR('',#1217,1.75);
#321=VECTOR('',#1222,1.75);
#322=VECTOR('',#1227,2.75);
#323=VECTOR('',#1234,2.75);
#324=VECTOR('',#1241,1.75);
#325=VECTOR('',#1248,2.75);
#326=VECTOR('',#1255,2.75);
#327=VECTOR('',#1262,1.75);
#328=VECTOR('',#1269,1.75);
#329=VECTOR('',#1276,1.75);
#330=VECTOR('',#1281,1.75);
#331=VECTOR('',#1288,1.75);
#332=VECTOR('',#1293,10.);
#333=VECTOR('',#1296,10.);
#334=VECTOR('',#1299,10.);
#335=VECTOR('',#1300,10.);
#336=VECTOR('',#1301,10.);
#337=VECTOR('',#1308,10.);
#338=VECTOR('',#1311,10.);
#339=VECTOR('',#1312,10.);
#340=VECTOR('',#1313,10.);
#341=VECTOR('',#1320,10.);
#342=VECTOR('',#1323,10.);
#343=VECTOR('',#1324,10.);
#344=VECTOR('',#1325,10.);
#345=VECTOR('',#1332,10.);
#346=VECTOR('',#1335,10.);
#347=VECTOR('',#1336,10.);
#348=VECTOR('',#1337,10.);
#349=VECTOR('',#1344,10.);
#350=VECTOR('',#1347,10.);
#351=VECTOR('',#1348,10.);
#352=VECTOR('',#1349,10.);
#353=VECTOR('',#1352,10.);
#354=VECTOR('',#1353,10.);
#355=VECTOR('',#1354,10.);
#356=VECTOR('',#1357,10.);
#357=VECTOR('',#1358,10.);
#358=VECTOR('',#1359,10.);
#359=VECTOR('',#1362,10.);
#360=VECTOR('',#1363,10.);
#361=VECTOR('',#1364,10.);
#362=VECTOR('',#1367,10.);
#363=VECTOR('',#1368,10.);
#364=VECTOR('',#1369,10.);
#365=VECTOR('',#1376,10.);
#366=VECTOR('',#1379,10.);
#367=VECTOR('',#1380,10.);
#368=VECTOR('',#1381,10.);
#369=VECTOR('',#1388,10.);
#370=VECTOR('',#1391,10.);
#371=VECTOR('',#1392,10.);
#372=VECTOR('',#1393,10.);
#373=VECTOR('',#1400,10.);
#374=VECTOR('',#1403,10.);
#375=VECTOR('',#1404,10.);
#376=VECTOR('',#1405,10.);
#377=VECTOR('',#1412,10.);
#378=VECTOR('',#1415,10.);
#379=VECTOR('',#1416,10.);
#380=VECTOR('',#1417,10.);
#381=VECTOR('',#1424,10.);
#382=VECTOR('',#1427,10.);
#383=VECTOR('',#1428,10.);
#384=CIRCLE('',#1041,1.75);
#385=CIRCLE('',#1042,1.75);
#386=CIRCLE('',#1044,1.75);
#387=CIRCLE('',#1045,1.75);
#388=CIRCLE('',#1055,1.75);
#389=CIRCLE('',#1056,1.75);
#390=CIRCLE('',#1057,12.5);
#391=CIRCLE('',#1058,1.75);
#392=CIRCLE('',#1059,1.75);
#393=CIRCLE('',#1061,12.5);
#394=CIRCLE('',#1063,1.75);
#395=CIRCLE('',#1065,1.75);
#396=CIRCLE('',#1067,2.75);
#397=CIRCLE('',#1068,2.75);
#398=CIRCLE('',#1070,2.75);
#399=CIRCLE('',#1071,2.75);
#400=CIRCLE('',#1073,1.75);
#401=CIRCLE('',#1074,1.75);
#402=CIRCLE('',#1076,2.75);
#403=CIRCLE('',#1077,2.75);
#404=CIRCLE('',#1079,2.75);
#405=CIRCLE('',#1080,2.75);
#406=CIRCLE('',#1082,1.75);
#407=CIRCLE('',#1083,1.75);
#408=CIRCLE('',#1085,1.75);
#409=CIRCLE('',#1086,1.75);
#410=CIRCLE('',#1088,1.75);
#411=CIRCLE('',#1090,1.75);
#412=CIRCLE('',#1091,1.75);
#413=CIRCLE('',#1093,1.75);
#414=CIRCLE('',#1095,5.);
#415=CIRCLE('',#1096,5.);
#416=CIRCLE('',#1099,5.00000000000004);
#417=CIRCLE('',#1100,5.00000000000004);
#418=CIRCLE('',#1103,6.00000000000013);
#419=CIRCLE('',#1104,6.00000000000013);
#420=CIRCLE('',#1107,7.00000000000005);
#421=CIRCLE('',#1108,7.00000000000005);
#422=CIRCLE('',#1111,6.99999999999998);
#423=CIRCLE('',#1112,6.99999999999998);
#424=CIRCLE('',#1119,7.00000000000007);
#425=CIRCLE('',#1120,7.00000000000007);
#426=CIRCLE('',#1123,7.0000000000001);
#427=CIRCLE('',#1124,7.0000000000001);
#428=CIRCLE('',#1127,6.0000000000001);
#429=CIRCLE('',#1128,6.0000000000001);
#430=CIRCLE('',#1131,5.00000000000001);
#431=CIRCLE('',#1132,5.00000000000001);
#432=CIRCLE('',#1135,5.00000000000004);
#433=CIRCLE('',#1136,5.00000000000004);
#434=VERTEX_POINT('',#1435);
#435=VERTEX_POINT('',#1437);
#436=VERTEX_POINT('',#1441);
#437=VERTEX_POINT('',#1443);
#438=VERTEX_POINT('',#1447);
#439=VERTEX_POINT('',#1448);
#440=VERTEX_POINT('',#1450);
#441=VERTEX_POINT('',#1452);
#442=VERTEX_POINT('',#1456);
#443=VERTEX_POINT('',#1458);
#444=VERTEX_POINT('',#1462);
#445=VERTEX_POINT('',#1464);
#446=VERTEX_POINT('',#1468);
#447=VERTEX_POINT('',#1470);
#448=VERTEX_POINT('',#1474);
#449=VERTEX_POINT('',#1476);
#450=VERTEX_POINT('',#1480);
#451=VERTEX_POINT('',#1482);
#452=VERTEX_POINT('',#1486);
#453=VERTEX_POINT('',#1488);
#454=VERTEX_POINT('',#1495);
#455=VERTEX_POINT('',#1497);
#456=VERTEX_POINT('',#1499);
#457=VERTEX_POINT('',#1501);
#458=VERTEX_POINT('',#1503);
#459=VERTEX_POINT('',#1506);
#460=VERTEX_POINT('',#1510);
#461=VERTEX_POINT('',#1514);
#462=VERTEX_POINT('',#1518);
#463=VERTEX_POINT('',#1520);
#464=VERTEX_POINT('',#1524);
#465=VERTEX_POINT('',#1526);
#466=VERTEX_POINT('',#1530);
#467=VERTEX_POINT('',#1532);
#468=VERTEX_POINT('',#1536);
#469=VERTEX_POINT('',#1538);
#470=VERTEX_POINT('',#1542);
#471=VERTEX_POINT('',#1544);
#472=VERTEX_POINT('',#1548);
#473=VERTEX_POINT('',#1550);
#474=VERTEX_POINT('',#1554);
#475=VERTEX_POINT('',#1556);
#476=VERTEX_POINT('',#1560);
#477=VERTEX_POINT('',#1564);
#478=VERTEX_POINT('',#1566);
#479=VERTEX_POINT('',#1570);
#480=VERTEX_POINT('',#1574);
#481=VERTEX_POINT('',#1575);
#482=VERTEX_POINT('',#1577);
#483=VERTEX_POINT('',#1579);
#484=VERTEX_POINT('',#1583);
#485=VERTEX_POINT('',#1585);
#486=VERTEX_POINT('',#1589);
#487=VERTEX_POINT('',#1591);
#488=VERTEX_POINT('',#1595);
#489=VERTEX_POINT('',#1597);
#490=VERTEX_POINT('',#1601);
#491=VERTEX_POINT('',#1603);
#492=VERTEX_POINT('',#1607);
#493=VERTEX_POINT('',#1609);
#494=VERTEX_POINT('',#1613);
#495=VERTEX_POINT('',#1615);
#496=VERTEX_POINT('',#1619);
#497=VERTEX_POINT('',#1621);
#498=VERTEX_POINT('',#1625);
#499=VERTEX_POINT('',#1627);
#500=VERTEX_POINT('',#1631);
#501=VERTEX_POINT('',#1633);
#502=VERTEX_POINT('',#1637);
#503=VERTEX_POINT('',#1639);
#504=VERTEX_POINT('',#1643);
#505=VERTEX_POINT('',#1645);
#506=VERTEX_POINT('',#1649);
#507=VERTEX_POINT('',#1651);
#508=VERTEX_POINT('',#1655);
#509=VERTEX_POINT('',#1657);
#510=VERTEX_POINT('',#1661);
#511=VERTEX_POINT('',#1663);
#512=VERTEX_POINT('',#1667);
#513=VERTEX_POINT('',#1669);
#514=VERTEX_POINT('',#1673);
#515=VERTEX_POINT('',#1675);
#516=VERTEX_POINT('',#1679);
#517=VERTEX_POINT('',#1681);
#518=VERTEX_POINT('',#1685);
#519=VERTEX_POINT('',#1687);
#520=VERTEX_POINT('',#1691);
#521=VERTEX_POINT('',#1693);
#522=VERTEX_POINT('',#1697);
#523=VERTEX_POINT('',#1699);
#524=VERTEX_POINT('',#1703);
#525=VERTEX_POINT('',#1705);
#526=VERTEX_POINT('',#1709);
#527=VERTEX_POINT('',#1711);
#528=EDGE_CURVE('',#434,#434,#384,.T.);
#529=EDGE_CURVE('',#434,#435,#202,.T.);
#530=EDGE_CURVE('',#435,#435,#385,.T.);
#531=EDGE_CURVE('',#436,#436,#386,.T.);
#532=EDGE_CURVE('',#436,#437,#203,.T.);
#533=EDGE_CURVE('',#437,#437,#387,.T.);
#534=EDGE_CURVE('',#438,#439,#204,.T.);
#535=EDGE_CURVE('',#438,#440,#205,.T.);
#536=EDGE_CURVE('',#440,#441,#206,.T.);
#537=EDGE_CURVE('',#439,#441,#207,.T.);
#538=EDGE_CURVE('',#442,#438,#208,.T.);
#539=EDGE_CURVE('',#442,#443,#209,.T.);
#540=EDGE_CURVE('',#443,#440,#210,.T.);
#541=EDGE_CURVE('',#444,#442,#211,.T.);
#542=EDGE_CURVE('',#444,#445,#212,.T.);
#543=EDGE_CURVE('',#445,#443,#213,.T.);
#544=EDGE_CURVE('',#446,#444,#214,.T.);
#545=EDGE_CURVE('',#446,#447,#215,.T.);
#546=EDGE_CURVE('',#447,#445,#216,.T.);
#547=EDGE_CURVE('',#448,#446,#217,.T.);
#548=EDGE_CURVE('',#448,#449,#218,.T.);
#549=EDGE_CURVE('',#449,#447,#219,.T.);
#550=EDGE_CURVE('',#450,#448,#220,.T.);
#551=EDGE_CURVE('',#450,#451,#221,.T.);
#552=EDGE_CURVE('',#451,#449,#222,.T.);
#553=EDGE_CURVE('',#452,#450,#223,.T.);
#554=EDGE_CURVE('',#452,#453,#224,.T.);
#555=EDGE_CURVE('',#453,#451,#225,.T.);
#556=EDGE_CURVE('',#439,#452,#226,.T.);
#557=EDGE_CURVE('',#441,#453,#227,.T.);
#558=EDGE_CURVE('',#454,#454,#388,.T.);
#559=EDGE_CURVE('',#455,#455,#389,.T.);
#560=EDGE_CURVE('',#456,#456,#390,.T.);
#561=EDGE_CURVE('',#457,#457,#391,.T.);
#562=EDGE_CURVE('',#458,#458,#392,.T.);
#563=EDGE_CURVE('',#459,#459,#393,.T.);
#564=EDGE_CURVE('',#459,#456,#228,.T.);
#565=EDGE_CURVE('',#460,#460,#394,.T.);
#566=EDGE_CURVE('',#460,#455,#229,.T.);
#567=EDGE_CURVE('',#461,#461,#395,.T.);
#568=EDGE_CURVE('',#461,#458,#230,.T.);
#569=EDGE_CURVE('',#462,#462,#396,.T.);
#570=EDGE_CURVE('',#462,#463,#231,.T.);
#571=EDGE_CURVE('',#463,#463,#397,.T.);
#572=EDGE_CURVE('',#464,#464,#398,.T.);
#573=EDGE_CURVE('',#464,#465,#232,.T.);
#574=EDGE_CURVE('',#465,#465,#399,.T.);
#575=EDGE_CURVE('',#466,#466,#400,.T.);
#576=EDGE_CURVE('',#466,#467,#233,.T.);
#577=EDGE_CURVE('',#467,#467,#401,.T.);
#578=EDGE_CURVE('',#468,#468,#402,.T.);
#579=EDGE_CURVE('',#468,#469,#234,.T.);
#580=EDGE_CURVE('',#469,#469,#403,.T.);
#581=EDGE_CURVE('',#470,#470,#404,.T.);
#582=EDGE_CURVE('',#470,#471,#235,.T.);
#583=EDGE_CURVE('',#471,#471,#405,.T.);
#584=EDGE_CURVE('',#472,#472,#406,.T.);
#585=EDGE_CURVE('',#472,#473,#236,.T.);
#586=EDGE_CURVE('',#473,#473,#407,.T.);
#587=EDGE_CURVE('',#474,#474,#408,.T.);
#588=EDGE_CURVE('',#474,#475,#237,.T.);
#589=EDGE_CURVE('',#475,#475,#409,.T.);
#590=EDGE_CURVE('',#476,#476,#410,.T.);
#591=EDGE_CURVE('',#476,#457,#238,.T.);
#592=EDGE_CURVE('',#477,#477,#411,.T.);
#593=EDGE_CURVE('',#477,#478,#239,.T.);
#594=EDGE_CURVE('',#478,#478,#412,.T.);
#595=EDGE_CURVE('',#479,#479,#413,.T.);
#596=EDGE_CURVE('',#479,#454,#240,.T.);
#597=EDGE_CURVE('',#480,#481,#414,.T.);
#598=EDGE_CURVE('',#481,#482,#241,.T.);
#599=EDGE_CURVE('',#483,#482,#415,.T.);
#600=EDGE_CURVE('',#480,#483,#242,.T.);
#601=EDGE_CURVE('',#480,#484,#243,.T.);
#602=EDGE_CURVE('',#485,#483,#244,.T.);
#603=EDGE_CURVE('',#484,#485,#245,.T.);
#604=EDGE_CURVE('',#484,#486,#416,.T.);
#605=EDGE_CURVE('',#487,#485,#417,.T.);
#606=EDGE_CURVE('',#486,#487,#246,.T.);
#607=EDGE_CURVE('',#488,#486,#247,.T.);
#608=EDGE_CURVE('',#489,#487,#248,.T.);
#609=EDGE_CURVE('',#488,#489,#249,.T.);
#610=EDGE_CURVE('',#490,#488,#418,.T.);
#611=EDGE_CURVE('',#491,#489,#419,.T.);
#612=EDGE_CURVE('',#490,#491,#250,.T.);
#613=EDGE_CURVE('',#492,#490,#251,.T.);
#614=EDGE_CURVE('',#493,#491,#252,.T.);
#615=EDGE_CURVE('',#492,#493,#253,.T.);
#616=EDGE_CURVE('',#494,#492,#420,.T.);
#617=EDGE_CURVE('',#495,#493,#421,.T.);
#618=EDGE_CURVE('',#494,#495,#254,.T.);
#619=EDGE_CURVE('',#496,#494,#255,.T.);
#620=EDGE_CURVE('',#497,#495,#256,.T.);
#621=EDGE_CURVE('',#496,#497,#257,.T.);
#622=EDGE_CURVE('',#496,#498,#422,.T.);
#623=EDGE_CURVE('',#499,#497,#423,.T.);
#624=EDGE_CURVE('',#498,#499,#258,.T.);
#625=EDGE_CURVE('',#500,#498,#259,.T.);
#626=EDGE_CURVE('',#501,#499,#260,.T.);
#627=EDGE_CURVE('',#500,#501,#261,.T.);
#628=EDGE_CURVE('',#502,#500,#262,.T.);
#629=EDGE_CURVE('',#503,#501,#263,.T.);
#630=EDGE_CURVE('',#502,#503,#264,.T.);
#631=EDGE_CURVE('',#502,#504,#265,.T.);
#632=EDGE_CURVE('',#505,#503,#266,.T.);
#633=EDGE_CURVE('',#504,#505,#267,.T.);
#634=EDGE_CURVE('',#504,#506,#268,.T.);
#635=EDGE_CURVE('',#507,#505,#269,.T.);
#636=EDGE_CURVE('',#506,#507,#270,.T.);
#637=EDGE_CURVE('',#506,#508,#271,.T.);
#638=EDGE_CURVE('',#509,#507,#272,.T.);
#639=EDGE_CURVE('',#508,#509,#273,.T.);
#640=EDGE_CURVE('',#508,#510,#424,.T.);
#641=EDGE_CURVE('',#511,#509,#425,.T.);
#642=EDGE_CURVE('',#510,#511,#274,.T.);
#643=EDGE_CURVE('',#510,#512,#275,.T.);
#644=EDGE_CURVE('',#513,#511,#276,.T.);
#645=EDGE_CURVE('',#512,#513,#277,.T.);
#646=EDGE_CURVE('',#514,#512,#426,.T.);
#647=EDGE_CURVE('',#515,#513,#427,.T.);
#648=EDGE_CURVE('',#514,#515,#278,.T.);
#649=EDGE_CURVE('',#514,#516,#279,.T.);
#650=EDGE_CURVE('',#517,#515,#280,.T.);
#651=EDGE_CURVE('',#516,#517,#281,.T.);
#652=EDGE_CURVE('',#518,#516,#428,.T.);
#653=EDGE_CURVE('',#519,#517,#429,.T.);
#654=EDGE_CURVE('',#518,#519,#282,.T.);
#655=EDGE_CURVE('',#520,#518,#283,.T.);
#656=EDGE_CURVE('',#521,#519,#284,.T.);
#657=EDGE_CURVE('',#520,#521,#285,.T.);
#658=EDGE_CURVE('',#520,#522,#430,.T.);
#659=EDGE_CURVE('',#523,#521,#431,.T.);
#660=EDGE_CURVE('',#522,#523,#286,.T.);
#661=EDGE_CURVE('',#524,#522,#287,.T.);
#662=EDGE_CURVE('',#525,#523,#288,.T.);
#663=EDGE_CURVE('',#524,#525,#289,.T.);
#664=EDGE_CURVE('',#526,#524,#432,.T.);
#665=EDGE_CURVE('',#527,#525,#433,.T.);
#666=EDGE_CURVE('',#526,#527,#290,.T.);
#667=EDGE_CURVE('',#481,#526,#291,.T.);
#668=EDGE_CURVE('',#482,#527,#292,.T.);
#669=ORIENTED_EDGE('',*,*,#528,.F.);
#670=ORIENTED_EDGE('',*,*,#529,.T.);
#671=ORIENTED_EDGE('',*,*,#530,.F.);
#672=ORIENTED_EDGE('',*,*,#529,.F.);
#673=ORIENTED_EDGE('',*,*,#531,.F.);
#674=ORIENTED_EDGE('',*,*,#532,.T.);
#675=ORIENTED_EDGE('',*,*,#533,.F.);
#676=ORIENTED_EDGE('',*,*,#532,.F.);
#677=ORIENTED_EDGE('',*,*,#534,.F.);
#678=ORIENTED_EDGE('',*,*,#535,.T.);
#679=ORIENTED_EDGE('',*,*,#536,.T.);
#680=ORIENTED_EDGE('',*,*,#537,.F.);
#681=ORIENTED_EDGE('',*,*,#538,.F.);
#682=ORIENTED_EDGE('',*,*,#539,.T.);
#683=ORIENTED_EDGE('',*,*,#540,.T.);
#684=ORIENTED_EDGE('',*,*,#535,.F.);
#685=ORIENTED_EDGE('',*,*,#541,.F.);
#686=ORIENTED_EDGE('',*,*,#542,.T.);
#687=ORIENTED_EDGE('',*,*,#543,.T.);
#688=ORIENTED_EDGE('',*,*,#539,.F.);
#689=ORIENTED_EDGE('',*,*,#544,.F.);
#690=ORIENTED_EDGE('',*,*,#545,.T.);
#691=ORIENTED_EDGE('',*,*,#546,.T.);
#692=ORIENTED_EDGE('',*,*,#542,.F.);
#693=ORIENTED_EDGE('',*,*,#547,.F.);
#694=ORIENTED_EDGE('',*,*,#548,.T.);
#695=ORIENTED_EDGE('',*,*,#549,.T.);
#696=ORIENTED_EDGE('',*,*,#545,.F.);
#697=ORIENTED_EDGE('',*,*,#550,.F.);
#698=ORIENTED_EDGE('',*,*,#551,.T.);
#699=ORIENTED_EDGE('',*,*,#552,.T.);
#700=ORIENTED_EDGE('',*,*,#548,.F.);
#701=ORIENTED_EDGE('',*,*,#553,.F.);
#702=ORIENTED_EDGE('',*,*,#554,.T.);
#703=ORIENTED_EDGE('',*,*,#555,.T.);
#704=ORIENTED_EDGE('',*,*,#551,.F.);
#705=ORIENTED_EDGE('',*,*,#556,.F.);
#706=ORIENTED_EDGE('',*,*,#537,.T.);
#707=ORIENTED_EDGE('',*,*,#557,.T.);
#708=ORIENTED_EDGE('',*,*,#554,.F.);
#709=ORIENTED_EDGE('',*,*,#557,.F.);
#710=ORIENTED_EDGE('',*,*,#536,.F.);
#711=ORIENTED_EDGE('',*,*,#540,.F.);
#712=ORIENTED_EDGE('',*,*,#543,.F.);
#713=ORIENTED_EDGE('',*,*,#546,.F.);
#714=ORIENTED_EDGE('',*,*,#549,.F.);
#715=ORIENTED_EDGE('',*,*,#552,.F.);
#716=ORIENTED_EDGE('',*,*,#555,.F.);
#717=ORIENTED_EDGE('',*,*,#558,.F.);
#718=ORIENTED_EDGE('',*,*,#559,.F.);
#719=ORIENTED_EDGE('',*,*,#560,.F.);
#720=ORIENTED_EDGE('',*,*,#561,.F.);
#721=ORIENTED_EDGE('',*,*,#562,.F.);
#722=ORIENTED_EDGE('',*,*,#563,.F.);
#723=ORIENTED_EDGE('',*,*,#564,.T.);
#724=ORIENTED_EDGE('',*,*,#560,.T.);
#725=ORIENTED_EDGE('',*,*,#564,.F.);
#726=ORIENTED_EDGE('',*,*,#565,.F.);
#727=ORIENTED_EDGE('',*,*,#566,.T.);
#728=ORIENTED_EDGE('',*,*,#559,.T.);
#729=ORIENTED_EDGE('',*,*,#566,.F.);
#730=ORIENTED_EDGE('',*,*,#567,.F.);
#731=ORIENTED_EDGE('',*,*,#568,.T.);
#732=ORIENTED_EDGE('',*,*,#562,.T.);
#733=ORIENTED_EDGE('',*,*,#568,.F.);
#734=ORIENTED_EDGE('',*,*,#569,.F.);
#735=ORIENTED_EDGE('',*,*,#570,.T.);
#736=ORIENTED_EDGE('',*,*,#571,.T.);
#737=ORIENTED_EDGE('',*,*,#570,.F.);
#738=ORIENTED_EDGE('',*,*,#572,.F.);
#739=ORIENTED_EDGE('',*,*,#573,.T.);
#740=ORIENTED_EDGE('',*,*,#574,.T.);
#741=ORIENTED_EDGE('',*,*,#573,.F.);
#742=ORIENTED_EDGE('',*,*,#575,.F.);
#743=ORIENTED_EDGE('',*,*,#576,.T.);
#744=ORIENTED_EDGE('',*,*,#577,.T.);
#745=ORIENTED_EDGE('',*,*,#576,.F.);
#746=ORIENTED_EDGE('',*,*,#578,.F.);
#747=ORIENTED_EDGE('',*,*,#579,.T.);
#748=ORIENTED_EDGE('',*,*,#580,.T.);
#749=ORIENTED_EDGE('',*,*,#579,.F.);
#750=ORIENTED_EDGE('',*,*,#581,.F.);
#751=ORIENTED_EDGE('',*,*,#582,.T.);
#752=ORIENTED_EDGE('',*,*,#583,.T.);
#753=ORIENTED_EDGE('',*,*,#582,.F.);
#754=ORIENTED_EDGE('',*,*,#584,.F.);
#755=ORIENTED_EDGE('',*,*,#585,.T.);
#756=ORIENTED_EDGE('',*,*,#586,.T.);
#757=ORIENTED_EDGE('',*,*,#585,.F.);
#758=ORIENTED_EDGE('',*,*,#587,.F.);
#759=ORIENTED_EDGE('',*,*,#588,.T.);
#760=ORIENTED_EDGE('',*,*,#589,.T.);
#761=ORIENTED_EDGE('',*,*,#588,.F.);
#762=ORIENTED_EDGE('',*,*,#590,.F.);
#763=ORIENTED_EDGE('',*,*,#591,.T.);
#764=ORIENTED_EDGE('',*,*,#561,.T.);
#765=ORIENTED_EDGE('',*,*,#591,.F.);
#766=ORIENTED_EDGE('',*,*,#592,.F.);
#767=ORIENTED_EDGE('',*,*,#593,.T.);
#768=ORIENTED_EDGE('',*,*,#594,.T.);
#769=ORIENTED_EDGE('',*,*,#593,.F.);
#770=ORIENTED_EDGE('',*,*,#595,.F.);
#771=ORIENTED_EDGE('',*,*,#596,.T.);
#772=ORIENTED_EDGE('',*,*,#558,.T.);
#773=ORIENTED_EDGE('',*,*,#596,.F.);
#774=ORIENTED_EDGE('',*,*,#597,.T.);
#775=ORIENTED_EDGE('',*,*,#598,.T.);
#776=ORIENTED_EDGE('',*,*,#599,.F.);
#777=ORIENTED_EDGE('',*,*,#600,.F.);
#778=ORIENTED_EDGE('',*,*,#601,.F.);
#779=ORIENTED_EDGE('',*,*,#600,.T.);
#780=ORIENTED_EDGE('',*,*,#602,.F.);
#781=ORIENTED_EDGE('',*,*,#603,.F.);
#782=ORIENTED_EDGE('',*,*,#604,.F.);
#783=ORIENTED_EDGE('',*,*,#603,.T.);
#784=ORIENTED_EDGE('',*,*,#605,.F.);
#785=ORIENTED_EDGE('',*,*,#606,.F.);
#786=ORIENTED_EDGE('',*,*,#607,.T.);
#787=ORIENTED_EDGE('',*,*,#606,.T.);
#788=ORIENTED_EDGE('',*,*,#608,.F.);
#789=ORIENTED_EDGE('',*,*,#609,.F.);
#790=ORIENTED_EDGE('',*,*,#610,.T.);
#791=ORIENTED_EDGE('',*,*,#609,.T.);
#792=ORIENTED_EDGE('',*,*,#611,.F.);
#793=ORIENTED_EDGE('',*,*,#612,.F.);
#794=ORIENTED_EDGE('',*,*,#613,.T.);
#795=ORIENTED_EDGE('',*,*,#612,.T.);
#796=ORIENTED_EDGE('',*,*,#614,.F.);
#797=ORIENTED_EDGE('',*,*,#615,.F.);
#798=ORIENTED_EDGE('',*,*,#616,.T.);
#799=ORIENTED_EDGE('',*,*,#615,.T.);
#800=ORIENTED_EDGE('',*,*,#617,.F.);
#801=ORIENTED_EDGE('',*,*,#618,.F.);
#802=ORIENTED_EDGE('',*,*,#619,.T.);
#803=ORIENTED_EDGE('',*,*,#618,.T.);
#804=ORIENTED_EDGE('',*,*,#620,.F.);
#805=ORIENTED_EDGE('',*,*,#621,.F.);
#806=ORIENTED_EDGE('',*,*,#622,.F.);
#807=ORIENTED_EDGE('',*,*,#621,.T.);
#808=ORIENTED_EDGE('',*,*,#623,.F.);
#809=ORIENTED_EDGE('',*,*,#624,.F.);
#810=ORIENTED_EDGE('',*,*,#625,.T.);
#811=ORIENTED_EDGE('',*,*,#624,.T.);
#812=ORIENTED_EDGE('',*,*,#626,.F.);
#813=ORIENTED_EDGE('',*,*,#627,.F.);
#814=ORIENTED_EDGE('',*,*,#628,.T.);
#815=ORIENTED_EDGE('',*,*,#627,.T.);
#816=ORIENTED_EDGE('',*,*,#629,.F.);
#817=ORIENTED_EDGE('',*,*,#630,.F.);
#818=ORIENTED_EDGE('',*,*,#631,.F.);
#819=ORIENTED_EDGE('',*,*,#630,.T.);
#820=ORIENTED_EDGE('',*,*,#632,.F.);
#821=ORIENTED_EDGE('',*,*,#633,.F.);
#822=ORIENTED_EDGE('',*,*,#634,.F.);
#823=ORIENTED_EDGE('',*,*,#633,.T.);
#824=ORIENTED_EDGE('',*,*,#635,.F.);
#825=ORIENTED_EDGE('',*,*,#636,.F.);
#826=ORIENTED_EDGE('',*,*,#637,.F.);
#827=ORIENTED_EDGE('',*,*,#636,.T.);
#828=ORIENTED_EDGE('',*,*,#638,.F.);
#829=ORIENTED_EDGE('',*,*,#639,.F.);
#830=ORIENTED_EDGE('',*,*,#640,.F.);
#831=ORIENTED_EDGE('',*,*,#639,.T.);
#832=ORIENTED_EDGE('',*,*,#641,.F.);
#833=ORIENTED_EDGE('',*,*,#642,.F.);
#834=ORIENTED_EDGE('',*,*,#643,.F.);
#835=ORIENTED_EDGE('',*,*,#642,.T.);
#836=ORIENTED_EDGE('',*,*,#644,.F.);
#837=ORIENTED_EDGE('',*,*,#645,.F.);
#838=ORIENTED_EDGE('',*,*,#646,.T.);
#839=ORIENTED_EDGE('',*,*,#645,.T.);
#840=ORIENTED_EDGE('',*,*,#647,.F.);
#841=ORIENTED_EDGE('',*,*,#648,.F.);
#842=ORIENTED_EDGE('',*,*,#649,.F.);
#843=ORIENTED_EDGE('',*,*,#648,.T.);
#844=ORIENTED_EDGE('',*,*,#650,.F.);
#845=ORIENTED_EDGE('',*,*,#651,.F.);
#846=ORIENTED_EDGE('',*,*,#652,.T.);
#847=ORIENTED_EDGE('',*,*,#651,.T.);
#848=ORIENTED_EDGE('',*,*,#653,.F.);
#849=ORIENTED_EDGE('',*,*,#654,.F.);
#850=ORIENTED_EDGE('',*,*,#655,.T.);
#851=ORIENTED_EDGE('',*,*,#654,.T.);
#852=ORIENTED_EDGE('',*,*,#656,.F.);
#853=ORIENTED_EDGE('',*,*,#657,.F.);
#854=ORIENTED_EDGE('',*,*,#658,.F.);
#855=ORIENTED_EDGE('',*,*,#657,.T.);
#856=ORIENTED_EDGE('',*,*,#659,.F.);
#857=ORIENTED_EDGE('',*,*,#660,.F.);
#858=ORIENTED_EDGE('',*,*,#661,.T.);
#859=ORIENTED_EDGE('',*,*,#660,.T.);
#860=ORIENTED_EDGE('',*,*,#662,.F.);
#861=ORIENTED_EDGE('',*,*,#663,.F.);
#862=ORIENTED_EDGE('',*,*,#664,.T.);
#863=ORIENTED_EDGE('',*,*,#663,.T.);
#864=ORIENTED_EDGE('',*,*,#665,.F.);
#865=ORIENTED_EDGE('',*,*,#666,.F.);
#866=ORIENTED_EDGE('',*,*,#667,.T.);
#867=ORIENTED_EDGE('',*,*,#666,.T.);
#868=ORIENTED_EDGE('',*,*,#668,.F.);
#869=ORIENTED_EDGE('',*,*,#598,.F.);
#870=ORIENTED_EDGE('',*,*,#668,.T.);
#871=ORIENTED_EDGE('',*,*,#665,.T.);
#872=ORIENTED_EDGE('',*,*,#662,.T.);
#873=ORIENTED_EDGE('',*,*,#659,.T.);
#874=ORIENTED_EDGE('',*,*,#656,.T.);
#875=ORIENTED_EDGE('',*,*,#653,.T.);
#876=ORIENTED_EDGE('',*,*,#650,.T.);
#877=ORIENTED_EDGE('',*,*,#647,.T.);
#878=ORIENTED_EDGE('',*,*,#644,.T.);
#879=ORIENTED_EDGE('',*,*,#641,.T.);
#880=ORIENTED_EDGE('',*,*,#638,.T.);
#881=ORIENTED_EDGE('',*,*,#635,.T.);
#882=ORIENTED_EDGE('',*,*,#632,.T.);
#883=ORIENTED_EDGE('',*,*,#629,.T.);
#884=ORIENTED_EDGE('',*,*,#626,.T.);
#885=ORIENTED_EDGE('',*,*,#623,.T.);
#886=ORIENTED_EDGE('',*,*,#620,.T.);
#887=ORIENTED_EDGE('',*,*,#617,.T.);
#888=ORIENTED_EDGE('',*,*,#614,.T.);
#889=ORIENTED_EDGE('',*,*,#611,.T.);
#890=ORIENTED_EDGE('',*,*,#608,.T.);
#891=ORIENTED_EDGE('',*,*,#605,.T.);
#892=ORIENTED_EDGE('',*,*,#602,.T.);
#893=ORIENTED_EDGE('',*,*,#599,.T.);
#894=ORIENTED_EDGE('',*,*,#530,.T.);
#895=ORIENTED_EDGE('',*,*,#533,.T.);
#896=ORIENTED_EDGE('',*,*,#595,.T.);
#897=ORIENTED_EDGE('',*,*,#592,.T.);
#898=ORIENTED_EDGE('',*,*,#590,.T.);
#899=ORIENTED_EDGE('',*,*,#587,.T.);
#900=ORIENTED_EDGE('',*,*,#584,.T.);
#901=ORIENTED_EDGE('',*,*,#581,.T.);
#902=ORIENTED_EDGE('',*,*,#578,.T.);
#903=ORIENTED_EDGE('',*,*,#575,.T.);
#904=ORIENTED_EDGE('',*,*,#572,.T.);
#905=ORIENTED_EDGE('',*,*,#569,.T.);
#906=ORIENTED_EDGE('',*,*,#567,.T.);
#907=ORIENTED_EDGE('',*,*,#565,.T.);
#908=ORIENTED_EDGE('',*,*,#563,.T.);
#909=ORIENTED_EDGE('',*,*,#667,.F.);
#910=ORIENTED_EDGE('',*,*,#597,.F.);
#911=ORIENTED_EDGE('',*,*,#601,.T.);
#912=ORIENTED_EDGE('',*,*,#604,.T.);
#913=ORIENTED_EDGE('',*,*,#607,.F.);
#914=ORIENTED_EDGE('',*,*,#610,.F.);
#915=ORIENTED_EDGE('',*,*,#613,.F.);
#916=ORIENTED_EDGE('',*,*,#616,.F.);
#917=ORIENTED_EDGE('',*,*,#619,.F.);
#918=ORIENTED_EDGE('',*,*,#622,.T.);
#919=ORIENTED_EDGE('',*,*,#625,.F.);
#920=ORIENTED_EDGE('',*,*,#628,.F.);
#921=ORIENTED_EDGE('',*,*,#631,.T.);
#922=ORIENTED_EDGE('',*,*,#634,.T.);
#923=ORIENTED_EDGE('',*,*,#637,.T.);
#924=ORIENTED_EDGE('',*,*,#640,.T.);
#925=ORIENTED_EDGE('',*,*,#643,.T.);
#926=ORIENTED_EDGE('',*,*,#646,.F.);
#927=ORIENTED_EDGE('',*,*,#649,.T.);
#928=ORIENTED_EDGE('',*,*,#652,.F.);
#929=ORIENTED_EDGE('',*,*,#655,.F.);
#930=ORIENTED_EDGE('',*,*,#658,.T.);
#931=ORIENTED_EDGE('',*,*,#661,.F.);
#932=ORIENTED_EDGE('',*,*,#664,.F.);
#933=ORIENTED_EDGE('',*,*,#528,.T.);
#934=ORIENTED_EDGE('',*,*,#531,.T.);
#935=ORIENTED_EDGE('',*,*,#534,.T.);
#936=ORIENTED_EDGE('',*,*,#556,.T.);
#937=ORIENTED_EDGE('',*,*,#553,.T.);
#938=ORIENTED_EDGE('',*,*,#550,.T.);
#939=ORIENTED_EDGE('',*,*,#547,.T.);
#940=ORIENTED_EDGE('',*,*,#544,.T.);
#941=ORIENTED_EDGE('',*,*,#541,.T.);
#942=ORIENTED_EDGE('',*,*,#538,.T.);
#943=ORIENTED_EDGE('',*,*,#594,.F.);
#944=ORIENTED_EDGE('',*,*,#589,.F.);
#945=ORIENTED_EDGE('',*,*,#586,.F.);
#946=ORIENTED_EDGE('',*,*,#583,.F.);
#947=ORIENTED_EDGE('',*,*,#580,.F.);
#948=ORIENTED_EDGE('',*,*,#577,.F.);
#949=ORIENTED_EDGE('',*,*,#574,.F.);
#950=ORIENTED_EDGE('',*,*,#571,.F.);
#951=CYLINDRICAL_SURFACE('',#1040,1.75);
#952=CYLINDRICAL_SURFACE('',#1043,1.75);
#953=CYLINDRICAL_SURFACE('',#1060,12.5);
#954=CYLINDRICAL_SURFACE('',#1062,1.75);
#955=CYLINDRICAL_SURFACE('',#1064,1.75);
#956=CYLINDRICAL_SURFACE('',#1066,2.75);
#957=CYLINDRICAL_SURFACE('',#1069,2.75);
#958=CYLINDRICAL_SURFACE('',#1072,1.75);
#959=CYLINDRICAL_SURFACE('',#1075,2.75);
#960=CYLINDRICAL_SURFACE('',#1078,2.75);
#961=CYLINDRICAL_SURFACE('',#1081,1.75);
#962=CYLINDRICAL_SURFACE('',#1084,1.75);
#963=CYLINDRICAL_SURFACE('',#1087,1.75);
#964=CYLINDRICAL_SURFACE('',#1089,1.75);
#965=CYLINDRICAL_SURFACE('',#1092,1.75);
#966=CYLINDRICAL_SURFACE('',#1094,5.);
#967=CYLINDRICAL_SURFACE('',#1098,5.00000000000004);
#968=CYLINDRICAL_SURFACE('',#1102,6.00000000000013);
#969=CYLINDRICAL_SURFACE('',#1106,7.00000000000005);
#970=CYLINDRICAL_SURFACE('',#1110,6.99999999999998);
#971=CYLINDRICAL_SURFACE('',#1118,7.00000000000007);
#972=CYLINDRICAL_SURFACE('',#1122,7.0000000000001);
#973=CYLINDRICAL_SURFACE('',#1126,6.0000000000001);
#974=CYLINDRICAL_SURFACE('',#1130,5.00000000000001);
#975=CYLINDRICAL_SURFACE('',#1134,5.00000000000004);
#976=ADVANCED_FACE('',(#71),#951,.F.);
#977=ADVANCED_FACE('',(#72),#952,.F.);
#978=ADVANCED_FACE('',(#73),#46,.F.);
#979=ADVANCED_FACE('',(#74),#47,.F.);
#980=ADVANCED_FACE('',(#75),#48,.F.);
#981=ADVANCED_FACE('',(#76),#49,.F.);
#982=ADVANCED_FACE('',(#77),#50,.F.);
#983=ADVANCED_FACE('',(#78),#51,.F.);
#984=ADVANCED_FACE('',(#79),#52,.F.);
#985=ADVANCED_FACE('',(#80),#53,.F.);
#986=ADVANCED_FACE('',(#81,#15,#16,#17,#18,#19),#54,.T.);
#987=ADVANCED_FACE('',(#82),#953,.F.);
#988=ADVANCED_FACE('',(#83),#954,.F.);
#989=ADVANCED_FACE('',(#84),#955,.F.);
#990=ADVANCED_FACE('',(#85),#956,.F.);
#991=ADVANCED_FACE('',(#86),#957,.F.);
#992=ADVANCED_FACE('',(#87),#958,.F.);
#993=ADVANCED_FACE('',(#88),#959,.F.);
#994=ADVANCED_FACE('',(#89),#960,.F.);
#995=ADVANCED_FACE('',(#90),#961,.F.);
#996=ADVANCED_FACE('',(#91),#962,.F.);
#997=ADVANCED_FACE('',(#92),#963,.F.);
#998=ADVANCED_FACE('',(#93),#964,.F.);
#999=ADVANCED_FACE('',(#94),#965,.F.);
#1000=ADVANCED_FACE('',(#95),#966,.T.);
#1001=ADVANCED_FACE('',(#96),#55,.T.);
#1002=ADVANCED_FACE('',(#97),#967,.F.);
#1003=ADVANCED_FACE('',(#98),#56,.T.);
#1004=ADVANCED_FACE('',(#99),#968,.T.);
#1005=ADVANCED_FACE('',(#100),#57,.T.);
#1006=ADVANCED_FACE('',(#101),#969,.T.);
#1007=ADVANCED_FACE('',(#102),#58,.T.);
#1008=ADVANCED_FACE('',(#103),#970,.F.);
#1009=ADVANCED_FACE('',(#104),#59,.T.);
#1010=ADVANCED_FACE('',(#105),#60,.T.);
#1011=ADVANCED_FACE('',(#106),#61,.T.);
#1012=ADVANCED_FACE('',(#107),#62,.T.);
#1013=ADVANCED_FACE('',(#108),#63,.T.);
#1014=ADVANCED_FACE('',(#109),#971,.F.);
#1015=ADVANCED_FACE('',(#110),#64,.T.);
#1016=ADVANCED_FACE('',(#111),#972,.T.);
#1017=ADVANCED_FACE('',(#112),#65,.T.);
#1018=ADVANCED_FACE('',(#113),#973,.T.);
#1019=ADVANCED_FACE('',(#114),#66,.T.);
#1020=ADVANCED_FACE('',(#115),#974,.F.);
#1021=ADVANCED_FACE('',(#116),#67,.T.);
#1022=ADVANCED_FACE('',(#117),#975,.T.);
#1023=ADVANCED_FACE('',(#118),#68,.T.);
#1024=ADVANCED_FACE('',(#119,#20,#21,#22,#23,#24,#25,#26,#27,#28,#29,#30,
#31,#32,#33,#34),#69,.T.);
#1025=ADVANCED_FACE('',(#120,#35,#36,#37,#38,#39,#40,#41,#42,#43,#44,#45),
#70,.F.);
#1026=CLOSED_SHELL('',(#976,#977,#978,#979,#980,#981,#982,#983,#984,#985,
#986,#987,#988,#989,#990,#991,#992,#993,#994,#995,#996,#997,#998,#999,#1000,
#1001,#1002,#1003,#1004,#1005,#1006,#1007,#1008,#1009,#1010,#1011,#1012,
#1013,#1014,#1015,#1016,#1017,#1018,#1019,#1020,#1021,#1022,#1023,#1024,
#1025));
#1027=DERIVED_UNIT_ELEMENT(#1029,1.);
#1028=DERIVED_UNIT_ELEMENT(#1724,-3.);
#1029=(
MASS_UNIT()
NAMED_UNIT(*)
SI_UNIT(.KILO.,.GRAM.)
);
#1030=DERIVED_UNIT((#1027,#1028));
#1031=MEASURE_REPRESENTATION_ITEM('density measure',
POSITIVE_RATIO_MEASURE(7850.),#1030);
#1032=PROPERTY_DEFINITION_REPRESENTATION(#1037,#1034);
#1033=PROPERTY_DEFINITION_REPRESENTATION(#1038,#1035);
#1034=REPRESENTATION('material name',(#1036),#1721);
#1035=REPRESENTATION('density',(#1031),#1721);
#1036=DESCRIPTIVE_REPRESENTATION_ITEM('Stahl','Stahl');
#1037=PROPERTY_DEFINITION('material property','material name',#1731);
#1038=PROPERTY_DEFINITION('material property','density of part',#1731);
#1039=AXIS2_PLACEMENT_3D('',#1433,#1140,#1141);
#1040=AXIS2_PLACEMENT_3D('',#1434,#1142,#1143);
#1041=AXIS2_PLACEMENT_3D('',#1436,#1144,#1145);
#1042=AXIS2_PLACEMENT_3D('',#1439,#1147,#1148);
#1043=AXIS2_PLACEMENT_3D('',#1440,#1149,#1150);
#1044=AXIS2_PLACEMENT_3D('',#1442,#1151,#1152);
#1045=AXIS2_PLACEMENT_3D('',#1445,#1154,#1155);
#1046=AXIS2_PLACEMENT_3D('',#1446,#1156,#1157);
#1047=AXIS2_PLACEMENT_3D('',#1455,#1162,#1163);
#1048=AXIS2_PLACEMENT_3D('',#1461,#1167,#1168);
#1049=AXIS2_PLACEMENT_3D('',#1467,#1172,#1173);
#1050=AXIS2_PLACEMENT_3D('',#1473,#1177,#1178);
#1051=AXIS2_PLACEMENT_3D('',#1479,#1182,#1183);
#1052=AXIS2_PLACEMENT_3D('',#1485,#1187,#1188);
#1053=AXIS2_PLACEMENT_3D('',#1491,#1192,#1193);
#1054=AXIS2_PLACEMENT_3D('',#1494,#1196,#1197);
#1055=AXIS2_PLACEMENT_3D('',#1496,#1198,#1199);
#1056=AXIS2_PLACEMENT_3D('',#1498,#1200,#1201);
#1057=AXIS2_PLACEMENT_3D('',#1500,#1202,#1203);
#1058=AXIS2_PLACEMENT_3D('',#1502,#1204,#1205);
#1059=AXIS2_PLACEMENT_3D('',#1504,#1206,#1207);
#1060=AXIS2_PLACEMENT_3D('',#1505,#1208,#1209);
#1061=AXIS2_PLACEMENT_3D('',#1507,#1210,#1211);
#1062=AXIS2_PLACEMENT_3D('',#1509,#1213,#1214);
#1063=AXIS2_PLACEMENT_3D('',#1511,#1215,#1216);
#1064=AXIS2_PLACEMENT_3D('',#1513,#1218,#1219);
#1065=AXIS2_PLACEMENT_3D('',#1515,#1220,#1221);
#1066=AXIS2_PLACEMENT_3D('',#1517,#1223,#1224);
#1067=AXIS2_PLACEMENT_3D('',#1519,#1225,#1226);
#1068=AXIS2_PLACEMENT_3D('',#1522,#1228,#1229);
#1069=AXIS2_PLACEMENT_3D('',#1523,#1230,#1231);
#1070=AXIS2_PLACEMENT_3D('',#1525,#1232,#1233);
#1071=AXIS2_PLACEMENT_3D('',#1528,#1235,#1236);
#1072=AXIS2_PLACEMENT_3D('',#1529,#1237,#1238);
#1073=AXIS2_PLACEMENT_3D('',#1531,#1239,#1240);
#1074=AXIS2_PLACEMENT_3D('',#1534,#1242,#1243);
#1075=AXIS2_PLACEMENT_3D('',#1535,#1244,#1245);
#1076=AXIS2_PLACEMENT_3D('',#1537,#1246,#1247);
#1077=AXIS2_PLACEMENT_3D('',#1540,#1249,#1250);
#1078=AXIS2_PLACEMENT_3D('',#1541,#1251,#1252);
#1079=AXIS2_PLACEMENT_3D('',#1543,#1253,#1254);
#1080=AXIS2_PLACEMENT_3D('',#1546,#1256,#1257);
#1081=AXIS2_PLACEMENT_3D('',#1547,#1258,#1259);
#1082=AXIS2_PLACEMENT_3D('',#1549,#1260,#1261);
#1083=AXIS2_PLACEMENT_3D('',#1552,#1263,#1264);
#1084=AXIS2_PLACEMENT_3D('',#1553,#1265,#1266);
#1085=AXIS2_PLACEMENT_3D('',#1555,#1267,#1268);
#1086=AXIS2_PLACEMENT_3D('',#1558,#1270,#1271);
#1087=AXIS2_PLACEMENT_3D('',#1559,#1272,#1273);
#1088=AXIS2_PLACEMENT_3D('',#1561,#1274,#1275);
#1089=AXIS2_PLACEMENT_3D('',#1563,#1277,#1278);
#1090=AXIS2_PLACEMENT_3D('',#1565,#1279,#1280);
#1091=AXIS2_PLACEMENT_3D('',#1568,#1282,#1283);
#1092=AXIS2_PLACEMENT_3D('',#1569,#1284,#1285);
#1093=AXIS2_PLACEMENT_3D('',#1571,#1286,#1287);
#1094=AXIS2_PLACEMENT_3D('',#1573,#1289,#1290);
#1095=AXIS2_PLACEMENT_3D('',#1576,#1291,#1292);
#1096=AXIS2_PLACEMENT_3D('',#1580,#1294,#1295);
#1097=AXIS2_PLACEMENT_3D('',#1582,#1297,#1298);
#1098=AXIS2_PLACEMENT_3D('',#1588,#1302,#1303);
#1099=AXIS2_PLACEMENT_3D('',#1590,#1304,#1305);
#1100=AXIS2_PLACEMENT_3D('',#1592,#1306,#1307);
#1101=AXIS2_PLACEMENT_3D('',#1594,#1309,#1310);
#1102=AXIS2_PLACEMENT_3D('',#1600,#1314,#1315);
#1103=AXIS2_PLACEMENT_3D('',#1602,#1316,#1317);
#1104=AXIS2_PLACEMENT_3D('',#1604,#1318,#1319);
#1105=AXIS2_PLACEMENT_3D('',#1606,#1321,#1322);
#1106=AXIS2_PLACEMENT_3D('',#1612,#1326,#1327);
#1107=AXIS2_PLACEMENT_3D('',#1614,#1328,#1329);
#1108=AXIS2_PLACEMENT_3D('',#1616,#1330,#1331);
#1109=AXIS2_PLACEMENT_3D('',#1618,#1333,#1334);
#1110=AXIS2_PLACEMENT_3D('',#1624,#1338,#1339);
#1111=AXIS2_PLACEMENT_3D('',#1626,#1340,#1341);
#1112=AXIS2_PLACEMENT_3D('',#1628,#1342,#1343);
#1113=AXIS2_PLACEMENT_3D('',#1630,#1345,#1346);
#1114=AXIS2_PLACEMENT_3D('',#1636,#1350,#1351);
#1115=AXIS2_PLACEMENT_3D('',#1642,#1355,#1356);
#1116=AXIS2_PLACEMENT_3D('',#1648,#1360,#1361);
#1117=AXIS2_PLACEMENT_3D('',#1654,#1365,#1366);
#1118=AXIS2_PLACEMENT_3D('',#1660,#1370,#1371);
#1119=AXIS2_PLACEMENT_3D('',#1662,#1372,#1373);
#1120=AXIS2_PLACEMENT_3D('',#1664,#1374,#1375);
#1121=AXIS2_PLACEMENT_3D('',#1666,#1377,#1378);
#1122=AXIS2_PLACEMENT_3D('',#1672,#1382,#1383);
#1123=AXIS2_PLACEMENT_3D('',#1674,#1384,#1385);
#1124=AXIS2_PLACEMENT_3D('',#1676,#1386,#1387);
#1125=AXIS2_PLACEMENT_3D('',#1678,#1389,#1390);
#1126=AXIS2_PLACEMENT_3D('',#1684,#1394,#1395);
#1127=AXIS2_PLACEMENT_3D('',#1686,#1396,#1397);
#1128=AXIS2_PLACEMENT_3D('',#1688,#1398,#1399);
#1129=AXIS2_PLACEMENT_3D('',#1690,#1401,#1402);
#1130=AXIS2_PLACEMENT_3D('',#1696,#1406,#1407);
#1131=AXIS2_PLACEMENT_3D('',#1698,#1408,#1409);
#1132=AXIS2_PLACEMENT_3D('',#1700,#1410,#1411);
#1133=AXIS2_PLACEMENT_3D('',#1702,#1413,#1414);
#1134=AXIS2_PLACEMENT_3D('',#1708,#1418,#1419);
#1135=AXIS2_PLACEMENT_3D('',#1710,#1420,#1421);
#1136=AXIS2_PLACEMENT_3D('',#1712,#1422,#1423);
#1137=AXIS2_PLACEMENT_3D('',#1714,#1425,#1426);
#1138=AXIS2_PLACEMENT_3D('',#1717,#1429,#1430);
#1139=AXIS2_PLACEMENT_3D('',#1718,#1431,#1432);
#1140=DIRECTION('axis',(0.,0.,1.));
#1141=DIRECTION('refdir',(1.,0.,0.));
#1142=DIRECTION('center_axis',(0.,0.,1.));
#1143=DIRECTION('ref_axis',(1.,0.,0.));
#1144=DIRECTION('center_axis',(0.,0.,1.));
#1145=DIRECTION('ref_axis',(1.,0.,0.));
#1146=DIRECTION('',(0.,0.,1.));
#1147=DIRECTION('center_axis',(0.,0.,-1.));
#1148=DIRECTION('ref_axis',(1.,0.,0.));
#1149=DIRECTION('center_axis',(0.,0.,1.));
#1150=DIRECTION('ref_axis',(1.,0.,0.));
#1151=DIRECTION('center_axis',(0.,0.,1.));
#1152=DIRECTION('ref_axis',(1.,0.,0.));
#1153=DIRECTION('',(0.,0.,1.));
#1154=DIRECTION('center_axis',(0.,0.,-1.));
#1155=DIRECTION('ref_axis',(1.,0.,0.));
#1156=DIRECTION('center_axis',(0.707106781186548,-0.707106781186548,0.));
#1157=DIRECTION('ref_axis',(0.707106781186548,0.707106781186548,0.));
#1158=DIRECTION('',(0.707106781186548,0.707106781186548,0.));
#1159=DIRECTION('',(0.,0.,1.));
#1160=DIRECTION('',(0.707106781186547,0.707106781186547,0.));
#1161=DIRECTION('',(0.,0.,1.));
#1162=DIRECTION('center_axis',(0.,-1.,0.));
#1163=DIRECTION('ref_axis',(1.,0.,0.));
#1164=DIRECTION('',(1.,0.,0.));
#1165=DIRECTION('',(0.,0.,1.));
#1166=DIRECTION('',(1.,0.,0.));
#1167=DIRECTION('center_axis',(-0.707106781186547,-0.707106781186548,0.));
#1168=DIRECTION('ref_axis',(0.707106781186548,-0.707106781186547,0.));
#1169=DIRECTION('',(0.707106781186548,-0.707106781186547,0.));
#1170=DIRECTION('',(0.,0.,1.));
#1171=DIRECTION('',(0.707106781186548,-0.707106781186547,0.));
#1172=DIRECTION('center_axis',(-1.,0.,0.));
#1173=DIRECTION('ref_axis',(0.,-1.,0.));
#1174=DIRECTION('',(0.,-1.,0.));
#1175=DIRECTION('',(0.,0.,1.));
#1176=DIRECTION('',(0.,-1.,0.));
#1177=DIRECTION('center_axis',(-0.707106781186548,0.707106781186548,0.));
#1178=DIRECTION('ref_axis',(-0.707106781186548,-0.707106781186548,0.));
#1179=DIRECTION('',(-0.707106781186548,-0.707106781186548,0.));
#1180=DIRECTION('',(0.,0.,1.));
#1181=DIRECTION('',(-0.707106781186548,-0.707106781186548,0.));
#1182=DIRECTION('center_axis',(0.,1.,0.));
#1183=DIRECTION('ref_axis',(-1.,0.,0.));
#1184=DIRECTION('',(-1.,0.,0.));
#1185=DIRECTION('',(0.,0.,1.));
#1186=DIRECTION('',(-1.,0.,0.));
#1187=DIRECTION('center_axis',(0.707106781186548,0.707106781186547,0.));
#1188=DIRECTION('ref_axis',(-0.707106781186547,0.707106781186548,0.));
#1189=DIRECTION('',(-0.707106781186547,0.707106781186548,0.));
#1190=DIRECTION('',(0.,0.,1.));
#1191=DIRECTION('',(-0.707106781186547,0.707106781186548,0.));
#1192=DIRECTION('center_axis',(1.,0.,0.));
#1193=DIRECTION('ref_axis',(0.,1.,0.));
#1194=DIRECTION('',(0.,1.,0.));
#1195=DIRECTION('',(0.,1.,0.));
#1196=DIRECTION('center_axis',(0.,0.,-1.));
#1197=DIRECTION('ref_axis',(1.,0.,0.));
#1198=DIRECTION('center_axis',(0.,0.,-1.));
#1199=DIRECTION('ref_axis',(1.,0.,0.));
#1200=DIRECTION('center_axis',(0.,0.,-1.));
#1201=DIRECTION('ref_axis',(1.,0.,0.));
#1202=DIRECTION('center_axis',(0.,0.,-1.));
#1203=DIRECTION('ref_axis',(1.,0.,0.));
#1204=DIRECTION('center_axis',(0.,0.,-1.));
#1205=DIRECTION('ref_axis',(1.,0.,0.));
#1206=DIRECTION('center_axis',(0.,0.,-1.));
#1207=DIRECTION('ref_axis',(1.,0.,0.));
#1208=DIRECTION('center_axis',(0.,0.,1.));
#1209=DIRECTION('ref_axis',(1.,0.,0.));
#1210=DIRECTION('center_axis',(0.,0.,-1.));
#1211=DIRECTION('ref_axis',(1.,0.,0.));
#1212=DIRECTION('',(0.,0.,-1.));
#1213=DIRECTION('center_axis',(0.,0.,1.));
#1214=DIRECTION('ref_axis',(1.,0.,0.));
#1215=DIRECTION('center_axis',(0.,0.,-1.));
#1216=DIRECTION('ref_axis',(1.,0.,0.));
#1217=DIRECTION('',(0.,0.,-1.));
#1218=DIRECTION('center_axis',(0.,0.,1.));
#1219=DIRECTION('ref_axis',(1.,0.,0.));
#1220=DIRECTION('center_axis',(0.,0.,-1.));
#1221=DIRECTION('ref_axis',(1.,0.,0.));
#1222=DIRECTION('',(0.,0.,-1.));
#1223=DIRECTION('center_axis',(0.,0.,1.));
#1224=DIRECTION('ref_axis',(1.,0.,0.));
#1225=DIRECTION('center_axis',(0.,0.,-1.));
#1226=DIRECTION('ref_axis',(1.,0.,0.));
#1227=DIRECTION('',(0.,0.,-1.));
#1228=DIRECTION('center_axis',(0.,0.,-1.));
#1229=DIRECTION('ref_axis',(1.,0.,0.));
#1230=DIRECTION('center_axis',(0.,0.,1.));
#1231=DIRECTION('ref_axis',(1.,0.,0.));
#1232=DIRECTION('center_axis',(0.,0.,-1.));
#1233=DIRECTION('ref_axis',(1.,0.,0.));
#1234=DIRECTION('',(0.,0.,-1.));
#1235=DIRECTION('center_axis',(0.,0.,-1.));
#1236=DIRECTION('ref_axis',(1.,0.,0.));
#1237=DIRECTION('center_axis',(0.,0.,1.));
#1238=DIRECTION('ref_axis',(1.,0.,0.));
#1239=DIRECTION('center_axis',(0.,0.,-1.));
#1240=DIRECTION('ref_axis',(1.,0.,0.));
#1241=DIRECTION('',(0.,0.,-1.));
#1242=DIRECTION('center_axis',(0.,0.,-1.));
#1243=DIRECTION('ref_axis',(1.,0.,0.));
#1244=DIRECTION('center_axis',(0.,0.,1.));
#1245=DIRECTION('ref_axis',(1.,0.,0.));
#1246=DIRECTION('center_axis',(0.,0.,-1.));
#1247=DIRECTION('ref_axis',(1.,0.,0.));
#1248=DIRECTION('',(0.,0.,-1.));
#1249=DIRECTION('center_axis',(0.,0.,-1.));
#1250=DIRECTION('ref_axis',(1.,0.,0.));
#1251=DIRECTION('center_axis',(0.,0.,1.));
#1252=DIRECTION('ref_axis',(1.,0.,0.));
#1253=DIRECTION('center_axis',(0.,0.,-1.));
#1254=DIRECTION('ref_axis',(1.,0.,0.));
#1255=DIRECTION('',(0.,0.,-1.));
#1256=DIRECTION('center_axis',(0.,0.,-1.));
#1257=DIRECTION('ref_axis',(1.,0.,0.));
#1258=DIRECTION('center_axis',(0.,0.,1.));
#1259=DIRECTION('ref_axis',(1.,0.,0.));
#1260=DIRECTION('center_axis',(0.,0.,-1.));
#1261=DIRECTION('ref_axis',(1.,0.,0.));
#1262=DIRECTION('',(0.,0.,-1.));
#1263=DIRECTION('center_axis',(0.,0.,-1.));
#1264=DIRECTION('ref_axis',(1.,0.,0.));
#1265=DIRECTION('center_axis',(0.,0.,1.));
#1266=DIRECTION('ref_axis',(1.,0.,0.));
#1267=DIRECTION('center_axis',(0.,0.,-1.));
#1268=DIRECTION('ref_axis',(1.,0.,0.));
#1269=DIRECTION('',(0.,0.,-1.));
#1270=DIRECTION('center_axis',(0.,0.,-1.));
#1271=DIRECTION('ref_axis',(1.,0.,0.));
#1272=DIRECTION('center_axis',(0.,0.,1.));
#1273=DIRECTION('ref_axis',(1.,0.,0.));
#1274=DIRECTION('center_axis',(0.,0.,-1.));
#1275=DIRECTION('ref_axis',(1.,0.,0.));
#1276=DIRECTION('',(0.,0.,-1.));
#1277=DIRECTION('center_axis',(0.,0.,1.));
#1278=DIRECTION('ref_axis',(1.,0.,0.));
#1279=DIRECTION('center_axis',(0.,0.,-1.));
#1280=DIRECTION('ref_axis',(1.,0.,0.));
#1281=DIRECTION('',(0.,0.,-1.));
#1282=DIRECTION('center_axis',(0.,0.,-1.));
#1283=DIRECTION('ref_axis',(1.,0.,0.));
#1284=DIRECTION('center_axis',(0.,0.,1.));
#1285=DIRECTION('ref_axis',(1.,0.,0.));
#1286=DIRECTION('center_axis',(0.,0.,-1.));
#1287=DIRECTION('ref_axis',(1.,0.,0.));
#1288=DIRECTION('',(0.,0.,-1.));
#1289=DIRECTION('center_axis',(0.,0.,1.));
#1290=DIRECTION('ref_axis',(-1.,0.,0.));
#1291=DIRECTION('center_axis',(0.,0.,1.));
#1292=DIRECTION('ref_axis',(-1.,0.,0.));
#1293=DIRECTION('',(0.,0.,1.));
#1294=DIRECTION('center_axis',(0.,0.,1.));
#1295=DIRECTION('ref_axis',(-1.,0.,0.));
#1296=DIRECTION('',(0.,0.,1.));
#1297=DIRECTION('center_axis',(-1.,2.78387566778509E-17,0.));
#1298=DIRECTION('ref_axis',(-2.78387566778509E-17,-1.,0.));
#1299=DIRECTION('',(2.78387566778509E-17,1.,0.));
#1300=DIRECTION('',(-2.78387566778509E-17,-1.,0.));
#1301=DIRECTION('',(0.,0.,1.));
#1302=DIRECTION('center_axis',(0.,0.,1.));
#1303=DIRECTION('ref_axis',(1.,3.55271367880047E-15,0.));
#1304=DIRECTION('center_axis',(0.,0.,1.));
#1305=DIRECTION('ref_axis',(1.,3.55271367880047E-15,0.));
#1306=DIRECTION('center_axis',(0.,0.,-1.));
#1307=DIRECTION('ref_axis',(1.,3.55271367880047E-15,0.));
#1308=DIRECTION('',(0.,0.,1.));
#1309=DIRECTION('center_axis',(-0.680714606885987,-0.732548717814765,0.));
#1310=DIRECTION('ref_axis',(0.732548717814765,-0.680714606885987,0.));
#1311=DIRECTION('',(0.732548717814765,-0.680714606885987,0.));
#1312=DIRECTION('',(0.732548717814765,-0.680714606885987,0.));
#1313=DIRECTION('',(0.,0.,1.));
#1314=DIRECTION('center_axis',(0.,0.,1.));
#1315=DIRECTION('ref_axis',(-1.,-5.92118946466737E-15,0.));
#1316=DIRECTION('center_axis',(0.,0.,1.));
#1317=DIRECTION('ref_axis',(-1.,-5.92118946466737E-15,0.));
#1318=DIRECTION('center_axis',(0.,0.,1.));
#1319=DIRECTION('ref_axis',(-1.,-5.92118946466737E-15,0.));
#1320=DIRECTION('',(0.,0.,1.));
#1321=DIRECTION('center_axis',(-1.,0.,0.));
#1322=DIRECTION('ref_axis',(0.,-1.,0.));
#1323=DIRECTION('',(0.,-1.,0.));
#1324=DIRECTION('',(0.,-1.,0.));
#1325=DIRECTION('',(0.,0.,1.));
#1326=DIRECTION('center_axis',(0.,0.,1.));
#1327=DIRECTION('ref_axis',(-0.707106804894149,0.707106757478945,0.));
#1328=DIRECTION('center_axis',(0.,0.,1.));
#1329=DIRECTION('ref_axis',(-0.707106804894149,0.707106757478945,0.));
#1330=DIRECTION('center_axis',(0.,0.,1.));
#1331=DIRECTION('ref_axis',(-0.707106804894149,0.707106757478945,0.));
#1332=DIRECTION('',(0.,0.,1.));
#1333=DIRECTION('center_axis',(-0.707106804894149,0.707106757478946,0.));
#1334=DIRECTION('ref_axis',(-0.707106757478946,-0.707106804894148,0.));
#1335=DIRECTION('',(-0.707106757478946,-0.707106804894148,0.));
#1336=DIRECTION('',(-0.707106757478946,-0.707106804894148,0.));
#1337=DIRECTION('',(0.,0.,1.));
#1338=DIRECTION('center_axis',(0.,0.,1.));
#1339=DIRECTION('ref_axis',(0.707106804894146,-0.707106757478948,0.));
#1340=DIRECTION('center_axis',(0.,0.,1.));
#1341=DIRECTION('ref_axis',(0.707106804894146,-0.707106757478948,0.));
#1342=DIRECTION('center_axis',(0.,0.,-1.));
#1343=DIRECTION('ref_axis',(0.707106804894146,-0.707106757478948,0.));
#1344=DIRECTION('',(0.,0.,1.));
#1345=DIRECTION('center_axis',(-1.,0.,0.));
#1346=DIRECTION('ref_axis',(0.,-1.,0.));
#1347=DIRECTION('',(0.,-1.,0.));
#1348=DIRECTION('',(0.,-1.,0.));
#1349=DIRECTION('',(0.,0.,1.));
#1350=DIRECTION('center_axis',(-0.707106781186548,0.707106781186548,0.));
#1351=DIRECTION('ref_axis',(-0.707106781186548,-0.707106781186548,0.));
#1352=DIRECTION('',(-0.707106781186548,-0.707106781186548,0.));
#1353=DIRECTION('',(-0.707106781186548,-0.707106781186548,0.));
#1354=DIRECTION('',(0.,0.,1.));
#1355=DIRECTION('center_axis',(0.,1.,0.));
#1356=DIRECTION('ref_axis',(-1.,0.,0.));
#1357=DIRECTION('',(1.,0.,0.));
#1358=DIRECTION('',(-1.,0.,0.));
#1359=DIRECTION('',(0.,0.,1.));
#1360=DIRECTION('center_axis',(0.707106781186548,0.707106781186548,0.));
#1361=DIRECTION('ref_axis',(-0.707106781186548,0.707106781186548,0.));
#1362=DIRECTION('',(0.707106781186548,-0.707106781186548,0.));
#1363=DIRECTION('',(-0.707106781186548,0.707106781186548,0.));
#1364=DIRECTION('',(0.,0.,1.));
#1365=DIRECTION('center_axis',(1.,2.10966214173079E-16,0.));
#1366=DIRECTION('ref_axis',(-2.10966214173079E-16,1.,0.));
#1367=DIRECTION('',(2.10966214173079E-16,-1.,0.));
#1368=DIRECTION('',(-2.10966214173079E-16,1.,0.));
#1369=DIRECTION('',(0.,0.,1.));
#1370=DIRECTION('center_axis',(0.,0.,1.));
#1371=DIRECTION('ref_axis',(-1.,-2.53765262771462E-15,0.));
#1372=DIRECTION('center_axis',(0.,0.,1.));
#1373=DIRECTION('ref_axis',(-1.,-2.53765262771462E-15,0.));
#1374=DIRECTION('center_axis',(0.,0.,-1.));
#1375=DIRECTION('ref_axis',(-1.,-2.53765262771462E-15,0.));
#1376=DIRECTION('',(0.,0.,1.));
#1377=DIRECTION('center_axis',(0.707106804894148,0.707106757478946,0.));
#1378=DIRECTION('ref_axis',(-0.707106757478946,0.707106804894148,0.));
#1379=DIRECTION('',(0.707106757478946,-0.707106804894148,0.));
#1380=DIRECTION('',(-0.707106757478946,0.707106804894148,0.));
#1381=DIRECTION('',(0.,0.,1.));
#1382=DIRECTION('center_axis',(0.,0.,1.));
#1383=DIRECTION('ref_axis',(1.,7.61295788314382E-15,0.));
#1384=DIRECTION('center_axis',(0.,0.,1.));
#1385=DIRECTION('ref_axis',(1.,7.61295788314382E-15,0.));
#1386=DIRECTION('center_axis',(0.,0.,1.));
#1387=DIRECTION('ref_axis',(1.,7.61295788314382E-15,0.));
#1388=DIRECTION('',(0.,0.,1.));
#1389=DIRECTION('center_axis',(1.,0.,0.));
#1390=DIRECTION('ref_axis',(0.,1.,0.));
#1391=DIRECTION('',(0.,-1.,0.));
#1392=DIRECTION('',(0.,1.,0.));
#1393=DIRECTION('',(0.,0.,1.));
#1394=DIRECTION('center_axis',(0.,0.,1.));
#1395=DIRECTION('ref_axis',(0.769749966268235,-0.638345509446139,0.));
#1396=DIRECTION('center_axis',(0.,0.,1.));
#1397=DIRECTION('ref_axis',(0.769749966268235,-0.638345509446139,0.));
#1398=DIRECTION('center_axis',(0.,0.,1.));
#1399=DIRECTION('ref_axis',(0.769749966268235,-0.638345509446139,0.));
#1400=DIRECTION('',(0.,0.,1.));
#1401=DIRECTION('center_axis',(0.732667652108051,-0.680586593722266,0.));
#1402=DIRECTION('ref_axis',(0.680586593722266,0.732667652108051,0.));
#1403=DIRECTION('',(0.680586593722266,0.732667652108051,0.));
#1404=DIRECTION('',(0.680586593722266,0.732667652108051,0.));
#1405=DIRECTION('',(0.,0.,1.));
#1406=DIRECTION('center_axis',(0.,0.,1.));
#1407=DIRECTION('ref_axis',(-0.732667652108053,0.680586593722263,0.));
#1408=DIRECTION('center_axis',(0.,0.,1.));
#1409=DIRECTION('ref_axis',(-0.732667652108053,0.680586593722263,0.));
#1410=DIRECTION('center_axis',(0.,0.,-1.));
#1411=DIRECTION('ref_axis',(-0.732667652108053,0.680586593722263,0.));
#1412=DIRECTION('',(0.,0.,1.));
#1413=DIRECTION('center_axis',(1.,-3.06661568355472E-13,0.));
#1414=DIRECTION('ref_axis',(3.06661568355472E-13,1.,0.));
#1415=DIRECTION('',(3.06661568355472E-13,1.,0.));
#1416=DIRECTION('',(3.06661568355472E-13,1.,0.));
#1417=DIRECTION('',(0.,0.,1.));
#1418=DIRECTION('center_axis',(0.,0.,1.));
#1419=DIRECTION('ref_axis',(3.55271367880048E-15,-1.,0.));
#1420=DIRECTION('center_axis',(0.,0.,1.));
#1421=DIRECTION('ref_axis',(3.55271367880048E-15,-1.,0.));
#1422=DIRECTION('center_axis',(0.,0.,1.));
#1423=DIRECTION('ref_axis',(3.55271367880048E-15,-1.,0.));
#1424=DIRECTION('',(0.,0.,1.));
#1425=DIRECTION('center_axis',(0.,-1.,0.));
#1426=DIRECTION('ref_axis',(1.,0.,0.));
#1427=DIRECTION('',(1.,0.,0.));
#1428=DIRECTION('',(1.,0.,0.));
#1429=DIRECTION('center_axis',(0.,0.,1.));
#1430=DIRECTION('ref_axis',(1.,0.,0.));
#1431=DIRECTION('center_axis',(0.,0.,1.));
#1432=DIRECTION('ref_axis',(1.,0.,0.));
#1433=CARTESIAN_POINT('',(0.,0.,0.));
#1434=CARTESIAN_POINT('Origin',(5.99999998509884,-172.250001847744,0.));
#1435=CARTESIAN_POINT('',(4.24999998509884,-172.250001847744,0.));
#1436=CARTESIAN_POINT('Origin',(5.99999998509884,-172.250001847744,0.));
#1437=CARTESIAN_POINT('',(4.24999998509884,-172.250001847744,10.));
#1438=CARTESIAN_POINT('',(4.24999998509884,-172.250001847744,0.));
#1439=CARTESIAN_POINT('Origin',(5.99999998509884,-172.250001847744,10.));
#1440=CARTESIAN_POINT('Origin',(25.9999999850988,-172.250001847744,0.));
#1441=CARTESIAN_POINT('',(24.2499999850988,-172.250001847744,0.));
#1442=CARTESIAN_POINT('Origin',(25.9999999850988,-172.250001847744,0.));
#1443=CARTESIAN_POINT('',(24.2499999850988,-172.250001847744,10.));
#1444=CARTESIAN_POINT('',(24.2499999850988,-172.250001847744,0.));
#1445=CARTESIAN_POINT('Origin',(25.9999999850988,-172.250001847744,10.));
#1446=CARTESIAN_POINT('Origin',(33.2500002235174,-51.2500004470348,0.));
#1447=CARTESIAN_POINT('',(33.2500002235174,-51.2500004470348,0.));
#1448=CARTESIAN_POINT('',(36.2500002235174,-48.2500004470348,0.));
#1449=CARTESIAN_POINT('',(13.7187500949949,-70.7812505755574,0.));
#1450=CARTESIAN_POINT('',(33.2500002235174,-51.2500004470348,5.));
#1451=CARTESIAN_POINT('',(33.2500002235174,-51.2500004470348,0.));
#1452=CARTESIAN_POINT('',(36.2500002235174,-48.2500004470348,5.));
#1453=CARTESIAN_POINT('',(36.2500002235174,-48.2500004470348,5.));
#1454=CARTESIAN_POINT('',(36.2500002235174,-48.2500004470348,0.));
#1455=CARTESIAN_POINT('Origin',(-3.24999977648258,-51.2500004470348,0.));
#1456=CARTESIAN_POINT('',(-3.24999977648258,-51.2500004470348,0.));
#1457=CARTESIAN_POINT('',(5.87500022351742,-51.2500004470348,0.));
#1458=CARTESIAN_POINT('',(-3.24999977648258,-51.2500004470348,5.));
#1459=CARTESIAN_POINT('',(-3.24999977648258,-51.2500004470348,0.));
#1460=CARTESIAN_POINT('',(-3.24999977648258,-51.2500004470348,5.));
#1461=CARTESIAN_POINT('Origin',(-6.24999977648258,-48.2500004470348,0.));
#1462=CARTESIAN_POINT('',(-6.24999977648258,-48.2500004470348,0.));
#1463=CARTESIAN_POINT('',(14.7812503520399,-69.2812505755573,0.));
#1464=CARTESIAN_POINT('',(-6.24999977648258,-48.2500004470348,5.));
#1465=CARTESIAN_POINT('',(-6.24999977648258,-48.2500004470348,0.));
#1466=CARTESIAN_POINT('',(-6.24999977648258,-48.2500004470348,5.));
#1467=CARTESIAN_POINT('Origin',(-6.24999977648258,-11.7500004470348,0.));
#1468=CARTESIAN_POINT('',(-6.24999977648258,-11.7500004470348,0.));
#1469=CARTESIAN_POINT('',(-6.24999977648258,-61.4375007040799,0.));
#1470=CARTESIAN_POINT('',(-6.24999977648258,-11.7500004470348,5.));
#1471=CARTESIAN_POINT('',(-6.24999977648258,-11.7500004470348,0.));
#1472=CARTESIAN_POINT('',(-6.24999977648258,-11.7500004470348,5.));
#1473=CARTESIAN_POINT('Origin',(-3.24999977648258,-8.75000044703484,0.));
#1474=CARTESIAN_POINT('',(-3.24999977648258,-8.75000044703484,0.));
#1475=CARTESIAN_POINT('',(-24.2812499050051,-29.7812505755573,0.));
#1476=CARTESIAN_POINT('',(-3.24999977648258,-8.75000044703484,5.));
#1477=CARTESIAN_POINT('',(-3.24999977648258,-8.75000044703484,0.));
#1478=CARTESIAN_POINT('',(-3.24999977648258,-8.75000044703484,5.));
#1479=CARTESIAN_POINT('Origin',(33.2500002235174,-8.75000044703484,0.));
#1480=CARTESIAN_POINT('',(33.2500002235174,-8.75000044703484,0.));
#1481=CARTESIAN_POINT('',(24.1250002235174,-8.75000044703484,0.));
#1482=CARTESIAN_POINT('',(33.2500002235174,-8.75000044703484,5.));
#1483=CARTESIAN_POINT('',(33.2500002235174,-8.75000044703484,0.));
#1484=CARTESIAN_POINT('',(33.2500002235174,-8.75000044703484,5.));
#1485=CARTESIAN_POINT('Origin',(36.2500002235174,-11.7500004470348,0.));
#1486=CARTESIAN_POINT('',(36.2500002235174,-11.7500004470348,0.));
#1487=CARTESIAN_POINT('',(55.7812503520399,-31.2812505755574,0.));
#1488=CARTESIAN_POINT('',(36.2500002235174,-11.7500004470348,5.));
#1489=CARTESIAN_POINT('',(36.2500002235174,-11.7500004470348,0.));
#1490=CARTESIAN_POINT('',(36.2500002235174,-11.7500004470348,5.));
#1491=CARTESIAN_POINT('Origin',(36.2500002235174,-48.2500004470348,0.));
#1492=CARTESIAN_POINT('',(36.2500002235174,-79.6875007040799,0.));
#1493=CARTESIAN_POINT('',(36.2500002235174,-48.2500004470348,5.));
#1494=CARTESIAN_POINT('Origin',(15.0000002235174,-30.0000004470348,5.));
#1495=CARTESIAN_POINT('',(-2.25000014901161,-15.0000002235174,5.));
#1496=CARTESIAN_POINT('Origin',(-0.500000149011611,-15.0000002235174,5.));
#1497=CARTESIAN_POINT('',(-2.25000014901161,-46.0000002235174,5.));
#1498=CARTESIAN_POINT('Origin',(-0.500000149011611,-46.0000002235174,5.));
#1499=CARTESIAN_POINT('',(2.49999985098839,-30.5000002235174,5.));
#1500=CARTESIAN_POINT('Origin',(14.9999998509884,-30.5000002235174,5.));
#1501=CARTESIAN_POINT('',(28.7499998509884,-15.0000002235174,5.));
#1502=CARTESIAN_POINT('Origin',(30.4999998509884,-15.0000002235174,5.));
#1503=CARTESIAN_POINT('',(28.7499998509884,-46.0000002235174,5.));
#1504=CARTESIAN_POINT('Origin',(30.4999998509884,-46.0000002235174,5.));
#1505=CARTESIAN_POINT('Origin',(14.9999998509884,-30.5000002235174,0.));
#1506=CARTESIAN_POINT('',(2.49999985098839,-30.5000002235174,10.));
#1507=CARTESIAN_POINT('Origin',(14.9999998509884,-30.5000002235174,10.));
#1508=CARTESIAN_POINT('',(2.49999985098839,-30.5000002235174,0.));
#1509=CARTESIAN_POINT('Origin',(-0.500000149011611,-46.0000002235174,0.));
#1510=CARTESIAN_POINT('',(-2.25000014901161,-46.0000002235174,10.));
#1511=CARTESIAN_POINT('Origin',(-0.500000149011611,-46.0000002235174,10.));
#1512=CARTESIAN_POINT('',(-2.25000014901161,-46.0000002235174,0.));
#1513=CARTESIAN_POINT('Origin',(30.4999998509884,-46.0000002235174,0.));
#1514=CARTESIAN_POINT('',(28.7499998509884,-46.0000002235174,10.));
#1515=CARTESIAN_POINT('Origin',(30.4999998509884,-46.0000002235174,10.));
#1516=CARTESIAN_POINT('',(28.7499998509884,-46.0000002235174,0.));
#1517=CARTESIAN_POINT('Origin',(-5.00000007450581,-119.500001847744,0.));
#1518=CARTESIAN_POINT('',(-7.75000007450581,-119.500001847744,10.));
#1519=CARTESIAN_POINT('Origin',(-5.00000007450581,-119.500001847744,10.));
#1520=CARTESIAN_POINT('',(-7.75000007450581,-119.500001847744,0.));
#1521=CARTESIAN_POINT('',(-7.75000007450581,-119.500001847744,0.));
#1522=CARTESIAN_POINT('Origin',(-5.00000007450581,-119.500001847744,0.));
#1523=CARTESIAN_POINT('Origin',(35.0000005215406,-70.0000010430813,0.));
#1524=CARTESIAN_POINT('',(32.2500005215406,-70.0000010430813,10.));
#1525=CARTESIAN_POINT('Origin',(35.0000005215406,-70.0000010430813,10.));
#1526=CARTESIAN_POINT('',(32.2500005215406,-70.0000010430813,0.));
#1527=CARTESIAN_POINT('',(32.2500005215406,-70.0000010430813,0.));
#1528=CARTESIAN_POINT('Origin',(35.0000005215406,-70.0000010430813,0.));
#1529=CARTESIAN_POINT('Origin',(7.49999998509884,-207.250001847744,0.));
#1530=CARTESIAN_POINT('',(5.74999998509884,-207.250001847744,10.));
#1531=CARTESIAN_POINT('Origin',(7.49999998509884,-207.250001847744,10.));
#1532=CARTESIAN_POINT('',(5.74999998509884,-207.250001847744,0.));
#1533=CARTESIAN_POINT('',(5.74999998509884,-207.250001847744,0.));
#1534=CARTESIAN_POINT('Origin',(7.49999998509884,-207.250001847744,0.));
#1535=CARTESIAN_POINT('Origin',(35.0000005215406,-119.500001847744,0.));
#1536=CARTESIAN_POINT('',(32.2500005215406,-119.500001847744,10.));
#1537=CARTESIAN_POINT('Origin',(35.0000005215406,-119.500001847744,10.));
#1538=CARTESIAN_POINT('',(32.2500005215406,-119.500001847744,0.));
#1539=CARTESIAN_POINT('',(32.2500005215406,-119.500001847744,0.));
#1540=CARTESIAN_POINT('Origin',(35.0000005215406,-119.500001847744,0.));
#1541=CARTESIAN_POINT('Origin',(-5.00000007450581,-70.0000010430813,0.));
#1542=CARTESIAN_POINT('',(-7.75000007450581,-70.0000010430813,10.));
#1543=CARTESIAN_POINT('Origin',(-5.00000007450581,-70.0000010430813,10.));
#1544=CARTESIAN_POINT('',(-7.75000007450581,-70.0000010430813,0.));
#1545=CARTESIAN_POINT('',(-7.75000007450581,-70.0000010430813,0.));
#1546=CARTESIAN_POINT('Origin',(-5.00000007450581,-70.0000010430813,0.));
#1547=CARTESIAN_POINT('Origin',(24.4999999850988,-207.250001847744,0.));
#1548=CARTESIAN_POINT('',(22.7499999850988,-207.250001847744,10.));
#1549=CARTESIAN_POINT('Origin',(24.4999999850988,-207.250001847744,10.));
#1550=CARTESIAN_POINT('',(22.7499999850988,-207.250001847744,0.));
#1551=CARTESIAN_POINT('',(22.7499999850988,-207.250001847744,0.));
#1552=CARTESIAN_POINT('Origin',(24.4999999850988,-207.250001847744,0.));
#1553=CARTESIAN_POINT('Origin',(7.49999998509884,-167.250001847744,0.));
#1554=CARTESIAN_POINT('',(5.74999998509884,-167.250001847744,10.));
#1555=CARTESIAN_POINT('Origin',(7.49999998509884,-167.250001847744,10.));
#1556=CARTESIAN_POINT('',(5.74999998509884,-167.250001847744,0.));
#1557=CARTESIAN_POINT('',(5.74999998509884,-167.250001847744,0.));
#1558=CARTESIAN_POINT('Origin',(7.49999998509884,-167.250001847744,0.));
#1559=CARTESIAN_POINT('Origin',(30.4999998509884,-15.0000002235174,0.));
#1560=CARTESIAN_POINT('',(28.7499998509884,-15.0000002235174,10.));
#1561=CARTESIAN_POINT('Origin',(30.4999998509884,-15.0000002235174,10.));
#1562=CARTESIAN_POINT('',(28.7499998509884,-15.0000002235174,0.));
#1563=CARTESIAN_POINT('Origin',(24.4999999850988,-167.250001847744,0.));
#1564=CARTESIAN_POINT('',(22.7499999850988,-167.250001847744,10.));
#1565=CARTESIAN_POINT('Origin',(24.4999999850988,-167.250001847744,10.));
#1566=CARTESIAN_POINT('',(22.7499999850988,-167.250001847744,0.));
#1567=CARTESIAN_POINT('',(22.7499999850988,-167.250001847744,0.));
#1568=CARTESIAN_POINT('Origin',(24.4999999850988,-167.250001847744,0.));
#1569=CARTESIAN_POINT('Origin',(-0.500000149011611,-15.0000002235174,0.));
#1570=CARTESIAN_POINT('',(-2.25000014901161,-15.0000002235174,10.));
#1571=CARTESIAN_POINT('Origin',(-0.500000149011611,-15.0000002235174,10.));
#1572=CARTESIAN_POINT('',(-2.25000014901161,-15.0000002235174,0.));
#1573=CARTESIAN_POINT('Origin',(0.999999940395366,-212.250001847744,0.));
#1574=CARTESIAN_POINT('',(-4.00000005960463,-212.250001847744,0.));
#1575=CARTESIAN_POINT('',(0.999999940395354,-217.250001847744,0.));
#1576=CARTESIAN_POINT('Origin',(0.999999940395366,-212.250001847744,0.));
#1577=CARTESIAN_POINT('',(0.999999940395354,-217.250001847744,10.));
#1578=CARTESIAN_POINT('',(0.999999940395354,-217.250001847744,0.));
#1579=CARTESIAN_POINT('',(-4.00000005960463,-212.250001847744,10.));
#1580=CARTESIAN_POINT('Origin',(0.999999940395366,-212.250001847744,10.));
#1581=CARTESIAN_POINT('',(-4.00000005960463,-212.250001847744,0.));
#1582=CARTESIAN_POINT('Origin',(-4.00000005960464,-147.429279384851,0.));
#1583=CARTESIAN_POINT('',(-4.00000005960464,-147.429279384851,0.));
#1584=CARTESIAN_POINT('',(-4.00000005960465,-207.250001847744,0.));
#1585=CARTESIAN_POINT('',(-4.00000005960464,-147.429279384851,10.));
#1586=CARTESIAN_POINT('',(-4.00000005960465,-207.250001847744,10.));
#1587=CARTESIAN_POINT('',(-4.00000005960464,-147.429279384851,0.));
#1588=CARTESIAN_POINT('Origin',(-9.00000005960468,-147.429279384851,0.));
#1589=CARTESIAN_POINT('',(-5.59642702517471,-143.766535795777,0.));
#1590=CARTESIAN_POINT('Origin',(-9.00000005960468,-147.429279384851,0.));
#1591=CARTESIAN_POINT('',(-5.59642702517471,-143.766535795777,10.));
#1592=CARTESIAN_POINT('Origin',(-9.00000005960468,-147.429279384851,10.));
#1593=CARTESIAN_POINT('',(-5.59642702517471,-143.766535795777,0.));
#1594=CARTESIAN_POINT('Origin',(-18.6185000956326,-131.665886193331,0.));
#1595=CARTESIAN_POINT('',(-18.6185000956326,-131.665886193331,0.));
#1596=CARTESIAN_POINT('',(-18.6185000956326,-131.665886193331,0.));
#1597=CARTESIAN_POINT('',(-18.6185000956326,-131.665886193331,10.));
#1598=CARTESIAN_POINT('',(-18.6185000956326,-131.665886193331,10.));
#1599=CARTESIAN_POINT('',(-18.6185000956326,-131.665886193331,0.));
#1600=CARTESIAN_POINT('Origin',(-14.0000002980231,-127.835813136654,0.));
#1601=CARTESIAN_POINT('',(-20.0000002980232,-127.835813136654,0.));
#1602=CARTESIAN_POINT('Origin',(-14.0000002980231,-127.835813136654,0.));
#1603=CARTESIAN_POINT('',(-20.0000002980232,-127.835813136654,10.));
#1604=CARTESIAN_POINT('Origin',(-14.0000002980231,-127.835813136654,10.));
#1605=CARTESIAN_POINT('',(-20.0000002980232,-127.835813136654,0.));
#1606=CARTESIAN_POINT('Origin',(-20.0000002980232,-67.899495767707,0.));
#1607=CARTESIAN_POINT('',(-20.0000002980232,-67.899495767707,0.));
#1608=CARTESIAN_POINT('',(-20.0000002980232,-67.899495767707,0.));
#1609=CARTESIAN_POINT('',(-20.0000002980232,-67.899495767707,10.));
#1610=CARTESIAN_POINT('',(-20.0000002980232,-67.899495767707,10.));
#1611=CARTESIAN_POINT('',(-20.0000002980232,-67.899495767707,0.));
#1612=CARTESIAN_POINT('Origin',(-13.0000002980232,-67.899495767707,0.));
#1613=CARTESIAN_POINT('',(-17.9497479322822,-62.9497484653544,0.));
#1614=CARTESIAN_POINT('Origin',(-13.0000002980232,-67.899495767707,0.));
#1615=CARTESIAN_POINT('',(-17.9497479322822,-62.9497484653544,10.));
#1616=CARTESIAN_POINT('Origin',(-13.0000002980232,-67.899495767707,10.));
#1617=CARTESIAN_POINT('',(-17.9497479322822,-62.9497484653544,0.));
#1618=CARTESIAN_POINT('Origin',(-12.0502525147526,-57.0502526522327,0.));
#1619=CARTESIAN_POINT('',(-12.0502525147526,-57.0502526522327,0.));
#1620=CARTESIAN_POINT('',(-12.0502525147526,-57.0502526522327,0.));
#1621=CARTESIAN_POINT('',(-12.0502525147526,-57.0502526522327,10.));
#1622=CARTESIAN_POINT('',(-12.0502525147526,-57.0502526522327,10.));
#1623=CARTESIAN_POINT('',(-12.0502525147526,-57.0502526522327,0.));
#1624=CARTESIAN_POINT('Origin',(-17.0000001490116,-52.1005053498801,0.));
#1625=CARTESIAN_POINT('',(-10.0000001490116,-52.1005053498801,0.));
#1626=CARTESIAN_POINT('Origin',(-17.0000001490116,-52.1005053498801,0.));
#1627=CARTESIAN_POINT('',(-10.0000001490116,-52.1005053498801,10.));
#1628=CARTESIAN_POINT('Origin',(-17.0000001490116,-52.1005053498801,10.));
#1629=CARTESIAN_POINT('',(-10.0000001490116,-52.1005053498801,0.));
#1630=CARTESIAN_POINT('Origin',(-10.0000001490116,-10.0000001490116,0.));
#1631=CARTESIAN_POINT('',(-10.0000001490116,-10.0000001490116,0.));
#1632=CARTESIAN_POINT('',(-10.0000001490116,-10.0000001490116,0.));
#1633=CARTESIAN_POINT('',(-10.0000001490116,-10.0000001490116,10.));
#1634=CARTESIAN_POINT('',(-10.0000001490116,-10.0000001490116,10.));
#1635=CARTESIAN_POINT('',(-10.0000001490116,-10.0000001490116,0.));
#1636=CARTESIAN_POINT('Origin',(-5.00000007450581,-5.00000007450581,0.));
#1637=CARTESIAN_POINT('',(-5.00000007450581,-5.00000007450581,0.));
#1638=CARTESIAN_POINT('',(-5.00000007450581,-5.00000007450581,0.));
#1639=CARTESIAN_POINT('',(-5.00000007450581,-5.00000007450581,10.));
#1640=CARTESIAN_POINT('',(-5.00000007450581,-5.00000007450581,10.));
#1641=CARTESIAN_POINT('',(-5.00000007450581,-5.00000007450581,0.));
#1642=CARTESIAN_POINT('Origin',(35.0000005215406,-5.00000007450581,0.));
#1643=CARTESIAN_POINT('',(35.0000005215406,-5.00000007450581,0.));
#1644=CARTESIAN_POINT('',(-5.00000007450581,-5.00000007450581,0.));
#1645=CARTESIAN_POINT('',(35.0000005215406,-5.00000007450581,10.));
#1646=CARTESIAN_POINT('',(-5.00000007450581,-5.00000007450581,10.));
#1647=CARTESIAN_POINT('',(35.0000005215406,-5.00000007450581,0.));
#1648=CARTESIAN_POINT('Origin',(40.0000005960464,-10.0000001490116,0.));
#1649=CARTESIAN_POINT('',(40.0000005960464,-10.0000001490116,0.));
#1650=CARTESIAN_POINT('',(35.0000005215406,-5.00000007450581,0.));
#1651=CARTESIAN_POINT('',(40.0000005960464,-10.0000001490116,10.));
#1652=CARTESIAN_POINT('',(35.0000005215406,-5.00000007450581,10.));
#1653=CARTESIAN_POINT('',(40.0000005960464,-10.0000001490116,0.));
#1654=CARTESIAN_POINT('Origin',(40.0000005960465,-52.1005053498801,0.));
#1655=CARTESIAN_POINT('',(40.0000005960465,-52.1005053498801,0.));
#1656=CARTESIAN_POINT('',(40.0000005960464,-10.0000001490116,0.));
#1657=CARTESIAN_POINT('',(40.0000005960465,-52.1005053498801,10.));
#1658=CARTESIAN_POINT('',(40.0000005960464,-10.0000001490116,10.));
#1659=CARTESIAN_POINT('',(40.0000005960465,-52.1005053498801,0.));
#1660=CARTESIAN_POINT('Origin',(47.0000005960465,-52.1005053498801,0.));
#1661=CARTESIAN_POINT('',(42.0502529617874,-57.0502526522327,0.));
#1662=CARTESIAN_POINT('Origin',(47.0000005960465,-52.1005053498801,0.));
#1663=CARTESIAN_POINT('',(42.0502529617874,-57.0502526522327,10.));
#1664=CARTESIAN_POINT('Origin',(47.0000005960465,-52.1005053498801,10.));
#1665=CARTESIAN_POINT('',(42.0502529617874,-57.0502526522327,0.));
#1666=CARTESIAN_POINT('Origin',(47.9497483793171,-62.9497484653544,0.));
#1667=CARTESIAN_POINT('',(47.9497483793171,-62.9497484653544,0.));
#1668=CARTESIAN_POINT('',(42.0502529617874,-57.0502526522327,0.));
#1669=CARTESIAN_POINT('',(47.9497483793171,-62.9497484653544,10.));
#1670=CARTESIAN_POINT('',(42.0502529617874,-57.0502526522327,10.));
#1671=CARTESIAN_POINT('',(47.9497483793171,-62.9497484653544,0.));
#1672=CARTESIAN_POINT('Origin',(43.000000745058,-67.8994957677071,0.));
#1673=CARTESIAN_POINT('',(50.0000007450581,-67.899495767707,0.));
#1674=CARTESIAN_POINT('Origin',(43.000000745058,-67.8994957677071,0.));
#1675=CARTESIAN_POINT('',(50.0000007450581,-67.899495767707,10.));
#1676=CARTESIAN_POINT('Origin',(43.000000745058,-67.8994957677071,10.));
#1677=CARTESIAN_POINT('',(50.0000007450581,-67.899495767707,0.));
#1678=CARTESIAN_POINT('Origin',(50.0000007450581,-127.835813136654,0.));
#1679=CARTESIAN_POINT('',(50.0000007450581,-127.835813136654,0.));
#1680=CARTESIAN_POINT('',(50.0000007450581,-119.500001847744,0.));
#1681=CARTESIAN_POINT('',(50.0000007450581,-127.835813136654,10.));
#1682=CARTESIAN_POINT('',(50.0000007450581,-119.500001847744,10.));
#1683=CARTESIAN_POINT('',(50.0000007450581,-127.835813136654,0.));
#1684=CARTESIAN_POINT('Origin',(44.000000745058,-127.835813136654,0.));
#1685=CARTESIAN_POINT('',(48.6185005426675,-131.665886193331,0.));
#1686=CARTESIAN_POINT('Origin',(44.000000745058,-127.835813136654,0.));
#1687=CARTESIAN_POINT('',(48.6185005426675,-131.665886193331,10.));
#1688=CARTESIAN_POINT('Origin',(44.000000745058,-127.835813136654,10.));
#1689=CARTESIAN_POINT('',(48.6185005426675,-131.665886193331,0.));
#1690=CARTESIAN_POINT('Origin',(37.3366619629638,-143.811053700152,0.));
#1691=CARTESIAN_POINT('',(37.3366619629638,-143.811053700152,0.));
#1692=CARTESIAN_POINT('',(37.3366619629638,-143.811053700152,0.));
#1693=CARTESIAN_POINT('',(37.3366619629638,-143.811053700152,10.));
#1694=CARTESIAN_POINT('',(37.3366619629638,-143.811053700152,10.));
#1695=CARTESIAN_POINT('',(37.3366619629638,-143.811053700152,0.));
#1696=CARTESIAN_POINT('Origin',(41.0000002235041,-147.213986668763,0.));
#1697=CARTESIAN_POINT('',(36.0000002235041,-147.213986668763,0.));
#1698=CARTESIAN_POINT('Origin',(41.0000002235041,-147.213986668763,0.));
#1699=CARTESIAN_POINT('',(36.0000002235041,-147.213986668763,10.));
#1700=CARTESIAN_POINT('Origin',(41.0000002235041,-147.213986668763,10.));
#1701=CARTESIAN_POINT('',(36.0000002235041,-147.213986668763,0.));
#1702=CARTESIAN_POINT('Origin',(36.0000002234842,-212.250001847711,0.));
#1703=CARTESIAN_POINT('',(36.0000002234842,-212.250001847711,0.));
#1704=CARTESIAN_POINT('',(36.0000002234842,-212.250001847711,0.));
#1705=CARTESIAN_POINT('',(36.0000002234842,-212.250001847711,10.));
#1706=CARTESIAN_POINT('',(36.0000002234842,-212.250001847711,10.));
#1707=CARTESIAN_POINT('',(36.0000002234842,-212.250001847711,0.));
#1708=CARTESIAN_POINT('Origin',(31.0000002234841,-212.250001847744,0.));
#1709=CARTESIAN_POINT('',(31.0000002234842,-217.250001847744,0.));
#1710=CARTESIAN_POINT('Origin',(31.0000002234841,-212.250001847744,0.));
#1711=CARTESIAN_POINT('',(31.0000002234842,-217.250001847744,10.));
#1712=CARTESIAN_POINT('Origin',(31.0000002234841,-212.250001847744,10.));
#1713=CARTESIAN_POINT('',(31.0000002234842,-217.250001847744,0.));
#1714=CARTESIAN_POINT('Origin',(0.999999940395355,-217.250001847744,0.));
#1715=CARTESIAN_POINT('',(15.0000002235174,-217.250001847744,0.));
#1716=CARTESIAN_POINT('',(15.0000002235174,-217.250001847744,10.));
#1717=CARTESIAN_POINT('Origin',(15.0000002235174,-111.125000961125,10.));
#1718=CARTESIAN_POINT('Origin',(15.0000002235174,-111.125000961125,0.));
#1719=UNCERTAINTY_MEASURE_WITH_UNIT(LENGTH_MEASURE(0.01),#1723,
'DISTANCE_ACCURACY_VALUE',
'Maximum model space distance between geometric entities at asserted c
onnectivities');
#1720=UNCERTAINTY_MEASURE_WITH_UNIT(LENGTH_MEASURE(0.01),#1723,
'DISTANCE_ACCURACY_VALUE',
'Maximum model space distance between geometric entities at asserted c
onnectivities');
#1721=(
GEOMETRIC_REPRESENTATION_CONTEXT(3)
GLOBAL_UNCERTAINTY_ASSIGNED_CONTEXT((#1719))
GLOBAL_UNIT_ASSIGNED_CONTEXT((#1723,#1725,#1726))
REPRESENTATION_CONTEXT('','3D')
);
#1722=(
GEOMETRIC_REPRESENTATION_CONTEXT(3)
GLOBAL_UNCERTAINTY_ASSIGNED_CONTEXT((#1720))
GLOBAL_UNIT_ASSIGNED_CONTEXT((#1723,#1725,#1726))
REPRESENTATION_CONTEXT('','3D')
);
#1723=(
LENGTH_UNIT()
NAMED_UNIT(*)
SI_UNIT(.MILLI.,.METRE.)
);
#1724=(
LENGTH_UNIT()
NAMED_UNIT(*)
SI_UNIT($,.METRE.)
);
#1725=(
NAMED_UNIT(*)
PLANE_ANGLE_UNIT()
SI_UNIT($,.RADIAN.)
);
#1726=(
NAMED_UNIT(*)
SI_UNIT($,.STERADIAN.)
SOLID_ANGLE_UNIT()
);
#1727=SHAPE_DEFINITION_REPRESENTATION(#1728,#1729);
#1728=PRODUCT_DEFINITION_SHAPE('',$,#1731);
#1729=SHAPE_REPRESENTATION('',(#1039),#1721);
#1730=PRODUCT_DEFINITION_CONTEXT('part definition',#1735,'design');
#1731=PRODUCT_DEFINITION('Laser Halter','Laser Halter v2',#1732,#1730);
#1732=PRODUCT_DEFINITION_FORMATION('',$,#1737);
#1733=PRODUCT_RELATED_PRODUCT_CATEGORY('Laser Halter v2',
'Laser Halter v2',(#1737));
#1734=APPLICATION_PROTOCOL_DEFINITION('international standard',
'automotive_design',2009,#1735);
#1735=APPLICATION_CONTEXT(
'Core Data for Automotive Mechanical Design Process');
#1736=PRODUCT_CONTEXT('part definition',#1735,'mechanical');
#1737=PRODUCT('Laser Halter','Laser Halter v2',$,(#1736));
#1738=PRESENTATION_STYLE_ASSIGNMENT((#1739));
#1739=SURFACE_STYLE_USAGE(.BOTH.,#1740);
#1740=SURFACE_SIDE_STYLE('',(#1741));
#1741=SURFACE_STYLE_FILL_AREA(#1742);
#1742=FILL_AREA_STYLE('Stahl - satiniert',(#1743));
#1743=FILL_AREA_STYLE_COLOUR('Stahl - satiniert',#1744);
#1744=COLOUR_RGB('Stahl - satiniert',0.627450980392157,0.627450980392157,
0.627450980392157);
ENDSEC;
END-ISO-10303-21;
